<?xml version="1.0" encoding="iso-8859-1"?>
<!-- Generator: Adobe Illustrator 19.0.1, SVG Export Plug-In . SVG Version: 6.00 Build 0)  -->
<svg version="1.1" xmlns="http://www.w3.org/2000/svg" xmlns:xlink="http://www.w3.org/1999/xlink" x="0px" y="0px"
	 viewBox="0 0 151.005 24.993" style="enable-background:new 0 0 151.005 24.993;" xml:space="preserve">
<g id="map">
</g>
<g id="&#x5716;&#x5C64;_3">
</g>
<g id="&#x5716;&#x5C64;_4">
</g>
<g id="menu">
	<g>
		<g>
			<g style="opacity:0.35;">
				<g>
					<defs>
						<path id="SVGID_1962_" d="M3.035,19.445C1.692,19.436,0.706,19.338,0,19.223l0-1.722c0.541-0.192,1.222-0.379,2.034-0.486
							C1.261,17.054,0.566,16.882,0,16.661l0-5.754c0.58-0.172,1.359-0.352,2.334-0.447C1.417,10.493,0.611,10.307,0,10.099l0-7.164
							C0,2.142,0.642,1.5,1.435,1.5H149.57c0.793,0,1.435,0.642,1.435,1.435v3.2c-0.849,0.264-1.699,0.504-2.307,0.611
							c0.859,0.006,1.631,0.049,2.307,0.108v1.765c-0.568,0.217-1.309,0.436-2.221,0.557c0.863-0.043,1.624,0.177,2.221,0.436v8.363
							c-0.592,0.187-1.441,0.396-2.521,0.502c1.012-0.037,1.895,0.191,2.521,0.424v4.044c0,0.793-0.642,1.435-1.435,1.435H1.435
							C0.642,24.38,0,23.737,0,22.945l0-2.494C0.935,20.056,2.129,19.605,3.035,19.445z"/>
					</defs>
					<clipPath id="SVGID_2_">
						<use xlink:href="#SVGID_1962_"  style="overflow:visible;"/>
					</clipPath>
				</g>
				<path d="M3.035,20.104C1.692,20.094,0.706,19.996,0,19.882l0-1.722c0.541-0.192,1.222-0.379,2.034-0.486
					C1.261,17.712,0.566,17.541,0,17.319l0-5.754c0.58-0.172,1.359-0.352,2.334-0.447C1.417,11.152,0.611,10.966,0,10.758l0-7.164
					c0-0.793,0.642-1.435,1.435-1.435H149.57c0.793,0,1.435,0.642,1.435,1.435v3.2c-0.849,0.264-1.699,0.504-2.307,0.611
					c0.859,0.006,1.631,0.049,2.307,0.108v1.765c-0.568,0.217-1.309,0.436-2.221,0.557c0.863-0.043,1.624,0.177,2.221,0.436v8.363
					c-0.592,0.187-1.441,0.396-2.521,0.502c1.012-0.037,1.895,0.191,2.521,0.424v4.044c0,0.793-0.642,1.435-1.435,1.435H1.435
					C0.642,25.038,0,24.396,0,23.603l0-2.494C0.935,20.715,2.129,20.264,3.035,20.104z"/>
				<path d="M3.035,19.445C1.692,19.436,0.706,19.338,0,19.223l0-1.722c0.541-0.192,1.222-0.379,2.034-0.486
					C1.261,17.054,0.566,16.882,0,16.661l0-5.754c0.58-0.172,1.359-0.352,2.334-0.447C1.417,10.493,0.611,10.307,0,10.099l0-7.164
					C0,2.142,0.642,1.5,1.435,1.5H149.57c0.793,0,1.435,0.642,1.435,1.435v3.2c-0.849,0.264-1.699,0.504-2.307,0.611
					c0.859,0.006,1.631,0.049,2.307,0.108v1.765c-0.568,0.217-1.309,0.436-2.221,0.557c0.863-0.043,1.624,0.177,2.221,0.436v8.363
					c-0.592,0.187-1.441,0.396-2.521,0.502c1.012-0.037,1.895,0.191,2.521,0.424v4.044c0,0.793-0.642,1.435-1.435,1.435H1.435
					C0.642,24.38,0,23.737,0,22.945l0-2.494C0.935,20.056,2.129,19.605,3.035,19.445z"/>
				<g>
					<defs>
						<path id="SVGID_1964_" d="M3.035,19.445C1.692,19.436,0.706,19.338,0,19.223l0-1.722c0.541-0.192,1.222-0.379,2.034-0.486
							C1.261,17.054,0.566,16.882,0,16.661l0-5.754c0.58-0.172,1.359-0.352,2.334-0.447C1.417,10.493,0.611,10.307,0,10.099l0-7.164
							C0,2.142,0.642,1.5,1.435,1.5H149.57c0.793,0,1.435,0.642,1.435,1.435v3.2c-0.849,0.264-1.699,0.504-2.307,0.611
							c0.859,0.006,1.631,0.049,2.307,0.108v1.765c-0.568,0.217-1.309,0.436-2.221,0.557c0.863-0.043,1.624,0.177,2.221,0.436v8.363
							c-0.592,0.187-1.441,0.396-2.521,0.502c1.012-0.037,1.895,0.191,2.521,0.424v4.044c0,0.793-0.642,1.435-1.435,1.435H1.435
							C0.642,24.38,0,23.737,0,22.945l0-2.494C0.935,20.056,2.129,19.605,3.035,19.445z"/>
					</defs>
					<clipPath id="SVGID_4_">
						<use xlink:href="#SVGID_1964_"  style="overflow:visible;"/>
					</clipPath>
					<path style="clip-path:url(#SVGID_4_);" d="M30.469,1.092L30.469,1.092c0-0.128-0.104-0.232-0.232-0.232H2.461
						c-0.128,0-0.232,0.104-0.232,0.232v0c0,0.128,0.104,0.232,0.232,0.232h27.776C30.365,1.323,30.469,1.22,30.469,1.092z"/>
					<path style="clip-path:url(#SVGID_4_);" d="M5.988,5.001L5.988,5.001c0-0.128-0.104-0.232-0.232-0.232h-20.809
						c-0.128,0-0.232,0.104-0.232,0.232v0c0,0.128,0.104,0.232,0.232,0.232l20.809,0C5.884,5.232,5.988,5.129,5.988,5.001z"/>
					<path style="clip-path:url(#SVGID_4_);" d="M35.874,15.691L35.874,15.691c0-0.128-0.104-0.232-0.232-0.232H-5.923
						c-0.128,0-0.232,0.104-0.232,0.232l0,0c0,0.128,0.104,0.232,0.232,0.232h41.565C35.77,15.923,35.874,15.819,35.874,15.691z"/>
					<path style="clip-path:url(#SVGID_4_);" d="M45.224,24.897L45.224,24.897c0-0.128-0.104-0.232-0.232-0.232H4.344
						c-0.128,0-0.232,0.104-0.232,0.232l0,0c0,0.128,0.104,0.232,0.232,0.232h40.648C45.12,25.129,45.224,25.025,45.224,24.897z"/>
					<path style="clip-path:url(#SVGID_4_);" d="M52.243,0.386L52.243,0.386c0-0.128-0.104-0.232-0.232-0.232l-16.794,0
						c-0.128,0-0.232,0.104-0.232,0.232v0c0,0.128,0.104,0.232,0.232,0.232h16.794C52.139,0.618,52.243,0.514,52.243,0.386z"/>
					<path style="clip-path:url(#SVGID_4_);" d="M9.485,2.433L9.485,2.433c0-0.128-0.104-0.232-0.232-0.232H-7.541
						c-0.128,0-0.232,0.104-0.232,0.232v0c0,0.128,0.104,0.232,0.232,0.232H9.254C9.382,2.664,9.485,2.561,9.485,2.433z"/>
					<path style="clip-path:url(#SVGID_4_);" d="M34.256,8.235L34.256,8.235c0-0.128-0.104-0.232-0.232-0.232H-7.541
						c-0.128,0-0.232,0.104-0.232,0.232l0,0c0,0.128,0.104,0.232,0.232,0.232h41.565C34.152,8.467,34.256,8.363,34.256,8.235z"/>
					<path style="clip-path:url(#SVGID_4_);" d="M28.39,23.729L28.39,23.729c0-0.128-0.104-0.232-0.232-0.232h-9.285
						c-0.128,0-0.232,0.104-0.232,0.232l0,0c0,0.128,0.104,0.232,0.232,0.232h9.285C28.286,23.961,28.39,23.857,28.39,23.729z"/>
					<path style="clip-path:url(#SVGID_4_);" d="M64.732,23.244L64.732,23.244c0-0.128-0.104-0.232-0.232-0.232H33.917
						c-0.128,0-0.232,0.104-0.232,0.232l0,0c0,0.128,0.104,0.232,0.232,0.232H64.5C64.628,23.476,64.732,23.372,64.732,23.244z"/>
					<path style="clip-path:url(#SVGID_4_);" d="M46.362,11.308L46.362,11.308c0-0.128-0.104-0.232-0.232-0.232H-5.5
						c-0.128,0-0.232,0.104-0.232,0.232l0,0c0,0.128,0.104,0.232,0.232,0.232h51.63C46.258,11.54,46.362,11.436,46.362,11.308z"/>
					<path style="clip-path:url(#SVGID_4_);" d="M33.178,6.548L33.178,6.548c0-0.128-0.104-0.232-0.232-0.232H5.17
						c-0.128,0-0.232,0.104-0.232,0.232v0c0,0.128,0.104,0.232,0.232,0.232h27.776C33.074,6.78,33.178,6.676,33.178,6.548z"/>
					<path style="clip-path:url(#SVGID_4_);" d="M68.346,4.487L68.346,4.487c0-0.128-0.104-0.232-0.232-0.232H51.32
						c-0.128,0-0.232,0.104-0.232,0.232v0c0,0.128,0.104,0.232,0.232,0.232h16.794C68.242,4.719,68.346,4.615,68.346,4.487z"/>
					<path style="clip-path:url(#SVGID_4_);" d="M69.296,18.319L69.296,18.319c0-0.128-0.104-0.232-0.232-0.232H48.255
						c-0.128,0-0.232,0.104-0.232,0.232l0,0c0,0.128,0.104,0.232,0.232,0.232h20.809C69.192,18.551,69.296,18.447,69.296,18.319z"/>
					<path style="clip-path:url(#SVGID_4_);" d="M69.866,10.5L69.866,10.5c0-0.128-0.104-0.232-0.232-0.232H39.051
						c-0.128,0-0.232,0.104-0.232,0.232l0,0c0,0.128,0.104,0.232,0.232,0.232h30.583C69.762,10.732,69.866,10.628,69.866,10.5z"/>
					<path style="clip-path:url(#SVGID_4_);" d="M67.644,16.303L67.644,16.303c0-0.128-0.104-0.232-0.232-0.232H26.764
						c-0.128,0-0.232,0.104-0.232,0.232l0,0c0,0.128,0.104,0.232,0.232,0.232h40.648C67.54,16.534,67.644,16.431,67.644,16.303z"/>
					<path style="clip-path:url(#SVGID_4_);" d="M50.779,21.359L50.779,21.359c0-0.128-0.104-0.232-0.232-0.232H33.753
						c-0.128,0-0.232,0.104-0.232,0.232l0,0c0,0.128,0.104,0.232,0.232,0.232h16.794C50.675,21.591,50.779,21.487,50.779,21.359z"/>
					<path style="clip-path:url(#SVGID_4_);" d="M85.632,8.637L85.632,8.637c0-0.128-0.104-0.232-0.232-0.232H68.606
						c-0.128,0-0.232,0.104-0.232,0.232l0,0c0,0.128,0.104,0.232,0.232,0.232H85.4C85.528,8.868,85.632,8.765,85.632,8.637z"/>
					<path style="clip-path:url(#SVGID_4_);" d="M52.994,3.959L52.994,3.959c0-0.128-0.104-0.232-0.232-0.232H34.63
						c-0.128,0-0.232,0.104-0.232,0.232v0c0,0.128,0.104,0.232,0.232,0.232h18.132C52.89,4.191,52.994,4.087,52.994,3.959z"/>
					<path style="clip-path:url(#SVGID_4_);" d="M87.152,14.65L87.152,14.65c0-0.128-0.104-0.232-0.232-0.232H56.337
						c-0.128,0-0.232,0.104-0.232,0.232l0,0c0,0.128,0.104,0.232,0.232,0.232H86.92C87.048,14.881,87.152,14.778,87.152,14.65z"/>
					<path style="clip-path:url(#SVGID_4_);" d="M80.354,6.117L80.354,6.117c0-0.128-0.104-0.232-0.232-0.232H39.474
						c-0.128,0-0.232,0.104-0.232,0.232v0c0,0.128,0.104,0.232,0.232,0.232h40.648C80.25,6.349,80.354,6.245,80.354,6.117z"/>
					<path style="clip-path:url(#SVGID_4_);" d="M66.153,11.794L66.153,11.794c0-0.128-0.104-0.232-0.232-0.232H49.127
						c-0.128,0-0.232,0.104-0.232,0.232v0c0,0.128,0.104,0.232,0.232,0.232h16.794C66.049,12.026,66.153,11.922,66.153,11.794z"/>
					<path style="clip-path:url(#SVGID_4_);" d="M133.531,19.795L133.531,19.795c0-0.128,0.104-0.232,0.232-0.232h30.583
						c0.128,0,0.232,0.104,0.232,0.232l0,0c0,0.128-0.104,0.232-0.232,0.232h-30.583C133.635,20.026,133.531,19.923,133.531,19.795z
						"/>
					<path style="clip-path:url(#SVGID_4_);" d="M117.162,4.49L117.162,4.49c0-0.128,0.104-0.232,0.232-0.232h16.794
						c0.128,0,0.232,0.104,0.232,0.232v0c0,0.128-0.104,0.232-0.232,0.232h-16.794C117.266,4.722,117.162,4.618,117.162,4.49z"/>
					<path style="clip-path:url(#SVGID_4_);" d="M123.043,15.412L123.043,15.412c0-0.128,0.104-0.232,0.232-0.232h40.648
						c0.128,0,0.232,0.104,0.232,0.232v0c0,0.128-0.104,0.232-0.232,0.232h-40.648C123.147,15.643,123.043,15.54,123.043,15.412z"/>
					<path style="clip-path:url(#SVGID_4_);" d="M84.845,0.264L84.845,0.264c0-0.128,0.104-0.232,0.232-0.232l16.794,0
						c0.128,0,0.232,0.104,0.232,0.232v0c0,0.128-0.104,0.232-0.232,0.232l-16.794,0C84.949,0.495,84.845,0.392,84.845,0.264z"/>
					<path style="clip-path:url(#SVGID_4_);" d="M101.059,8.591L101.059,8.591c0-0.128,0.104-0.232,0.232-0.232h16.794
						c0.128,0,0.232,0.104,0.232,0.232v0c0,0.128-0.104,0.232-0.232,0.232h-16.794C101.163,8.822,101.059,8.719,101.059,8.591z"/>
					<path style="clip-path:url(#SVGID_4_);" d="M99.539,14.604L99.539,14.604c0-0.128,0.104-0.232,0.232-0.232h30.583
						c0.128,0,0.232,0.104,0.232,0.232v0c0,0.128-0.104,0.232-0.232,0.232H99.771C99.643,14.835,99.539,14.732,99.539,14.604z"/>
					<path style="clip-path:url(#SVGID_4_);" d="M101.761,20.406L101.761,20.406c0-0.128,0.104-0.232,0.232-0.232h40.648
						c0.128,0,0.232,0.104,0.232,0.232l0,0c0,0.128-0.104,0.232-0.232,0.232h-40.648C101.865,20.638,101.761,20.534,101.761,20.406z
						"/>
					<path style="clip-path:url(#SVGID_4_);" d="M130.198,22.059L130.198,22.059c0-0.128,0.104-0.232,0.232-0.232h16.794
						c0.128,0,0.232,0.104,0.232,0.232l0,0c0,0.128-0.104,0.232-0.232,0.232H130.43C130.302,22.291,130.198,22.187,130.198,22.059z"
						/>
					<path style="clip-path:url(#SVGID_4_);" d="M83.774,12.74L83.774,12.74c0-0.128,0.104-0.232,0.232-0.232h16.794
						c0.128,0,0.232,0.104,0.232,0.232l0,0c0,0.128-0.104,0.232-0.232,0.232H84.005C83.877,12.972,83.774,12.868,83.774,12.74z"/>
					<path style="clip-path:url(#SVGID_4_);" d="M101.157,7.148L101.157,7.148c0-0.128,0.104-0.232,0.232-0.232h30.583
						c0.128,0,0.232,0.104,0.232,0.232v0c0,0.128-0.104,0.232-0.232,0.232h-30.583C101.261,7.38,101.157,7.276,101.157,7.148z"/>
					<path style="clip-path:url(#SVGID_4_);" d="M113.003,12.951L113.003,12.951c0-0.128,0.104-0.232,0.232-0.232h9.285
						c0.128,0,0.232,0.104,0.232,0.232v0c0,0.128-0.104,0.232-0.232,0.232h-9.285C113.107,13.182,113.003,13.079,113.003,12.951z"/>
					<path style="clip-path:url(#SVGID_4_);" d="M82.253,18.753L82.253,18.753c0-0.128,0.104-0.232,0.232-0.232h30.583
						c0.128,0,0.232,0.104,0.232,0.232l0,0c0,0.128-0.104,0.232-0.232,0.232H82.485C82.357,18.985,82.253,18.881,82.253,18.753z"/>
					<path style="clip-path:url(#SVGID_4_);" d="M89.051,10.221L89.051,10.221c0-0.128,0.104-0.232,0.232-0.232h40.648
						c0.128,0,0.232,0.104,0.232,0.232v0c0,0.128-0.104,0.232-0.232,0.232H89.283C89.155,10.452,89.051,10.349,89.051,10.221z"/>
					<path style="clip-path:url(#SVGID_4_);" d="M103.252,15.898L103.252,15.898c0-0.128,0.104-0.232,0.232-0.232h16.794
						c0.128,0,0.232,0.104,0.232,0.232l0,0c0,0.128-0.104,0.232-0.232,0.232h-16.794C103.356,16.129,103.252,16.026,103.252,15.898z
						"/>
				</g>
				<g>
					<defs>
						<path id="SVGID_1966_" d="M3.035,19.445C1.692,19.436,0.706,19.338,0,19.223l0-1.722c0.541-0.192,1.222-0.379,2.034-0.486
							C1.261,17.054,0.566,16.882,0,16.661l0-5.754c0.58-0.172,1.359-0.352,2.334-0.447C1.417,10.493,0.611,10.307,0,10.099l0-7.164
							C0,2.142,0.642,1.5,1.435,1.5H149.57c0.793,0,1.435,0.642,1.435,1.435v3.2c-0.849,0.264-1.699,0.504-2.307,0.611
							c0.859,0.006,1.631,0.049,2.307,0.108v1.765c-0.568,0.217-1.309,0.436-2.221,0.557c0.863-0.043,1.624,0.177,2.221,0.436v8.363
							c-0.592,0.187-1.441,0.396-2.521,0.502c1.012-0.037,1.895,0.191,2.521,0.424v4.044c0,0.793-0.642,1.435-1.435,1.435H1.435
							C0.642,24.38,0,23.737,0,22.945l0-2.494C0.935,20.056,2.129,19.605,3.035,19.445z"/>
					</defs>
					<clipPath id="SVGID_6_">
						<use xlink:href="#SVGID_1966_"  style="overflow:visible;"/>
					</clipPath>
				</g>
			</g>
			<g>
				<g>
					<g>
						<defs>
							<path id="SVGID_1968_" d="M3.035,17.945C1.692,17.936,0.706,17.838,0,17.723l0-1.722c0.541-0.192,1.222-0.379,2.034-0.486
								C1.261,15.554,0.566,15.382,0,15.161l0-5.754C0.58,9.235,1.359,9.055,2.334,8.96C1.417,8.993,0.611,8.807,0,8.599l0-7.164
								C0,0.642,0.642,0,1.435,0L149.57,0c0.793,0,1.435,0.642,1.435,1.435v3.2c-0.849,0.264-1.699,0.504-2.307,0.611
								c0.859,0.006,1.631,0.049,2.307,0.108v1.765c-0.568,0.217-1.309,0.436-2.221,0.557c0.863-0.043,1.624,0.177,2.221,0.436
								v8.363c-0.592,0.187-1.441,0.396-2.521,0.502c1.012-0.037,1.895,0.191,2.521,0.424v4.044c0,0.793-0.642,1.435-1.435,1.435
								H1.435C0.642,22.88,0,22.237,0,21.445l0-2.494C0.935,18.556,2.129,18.105,3.035,17.945z"/>
						</defs>
						<clipPath id="SVGID_8_">
							<use xlink:href="#SVGID_1968_"  style="overflow:visible;"/>
						</clipPath>
					</g>
				</g>
				<g>
					<g>
						<path style="fill:#3F1E08;" d="M3.035,18.604C1.692,18.594,0.706,18.496,0,18.382l0-1.722
							c0.541-0.192,1.222-0.379,2.034-0.486C1.261,16.212,0.566,16.041,0,15.819l0-5.754c0.58-0.172,1.359-0.352,2.334-0.447
							C1.417,9.652,0.611,9.466,0,9.258l0-7.164c0-0.793,0.642-1.435,1.435-1.435H149.57c0.793,0,1.435,0.642,1.435,1.435v3.2
							c-0.849,0.264-1.699,0.504-2.307,0.611c0.859,0.006,1.631,0.049,2.307,0.108v1.765c-0.568,0.217-1.309,0.436-2.221,0.557
							c0.863-0.043,1.624,0.177,2.221,0.436v8.363c-0.592,0.187-1.441,0.396-2.521,0.502c1.012-0.037,1.895,0.191,2.521,0.424v4.044
							c0,0.793-0.642,1.435-1.435,1.435H1.435C0.642,23.538,0,22.896,0,22.103l0-2.494C0.935,19.215,2.129,18.764,3.035,18.604z"/>
						
							<linearGradient id="SVGID_9_" gradientUnits="userSpaceOnUse" x1="941.0738" y1="3.325113e-09" x2="941.0738" y2="22.8796" gradientTransform="matrix(-1 0 0 1 1016.5764 0)">
							<stop  offset="0" style="stop-color:#8B613F"/>
							<stop  offset="1" style="stop-color:#6E5133"/>
						</linearGradient>
						<path style="fill:url(#SVGID_9_);" d="M3.035,17.945C1.692,17.936,0.706,17.838,0,17.723l0-1.722
							c0.541-0.192,1.222-0.379,2.034-0.486C1.261,15.554,0.566,15.382,0,15.161l0-5.754C0.58,9.235,1.359,9.055,2.334,8.96
							C1.417,8.993,0.611,8.807,0,8.599l0-7.164C0,0.642,0.642,0,1.435,0L149.57,0c0.793,0,1.435,0.642,1.435,1.435v3.2
							c-0.849,0.264-1.699,0.504-2.307,0.611c0.859,0.006,1.631,0.049,2.307,0.108v1.765c-0.568,0.217-1.309,0.436-2.221,0.557
							c0.863-0.043,1.624,0.177,2.221,0.436v8.363c-0.592,0.187-1.441,0.396-2.521,0.502c1.012-0.037,1.895,0.191,2.521,0.424v4.044
							c0,0.793-0.642,1.435-1.435,1.435H1.435C0.642,22.88,0,22.237,0,21.445l0-2.494C0.935,18.556,2.129,18.105,3.035,17.945z"/>
					</g>
					<g style="opacity:0.5;">
						<defs>
							<path id="SVGID_1971_" style="opacity:0.5;" d="M3.035,17.945C1.692,17.936,0.706,17.838,0,17.723l0-1.722
								c0.541-0.192,1.222-0.379,2.034-0.486C1.261,15.554,0.566,15.382,0,15.161l0-5.754C0.58,9.235,1.359,9.055,2.334,8.96
								C1.417,8.993,0.611,8.807,0,8.599l0-7.164C0,0.642,0.642,0,1.435,0L149.57,0c0.793,0,1.435,0.642,1.435,1.435v3.2
								c-0.849,0.264-1.699,0.504-2.307,0.611c0.859,0.006,1.631,0.049,2.307,0.108v1.765c-0.568,0.217-1.309,0.436-2.221,0.557
								c0.863-0.043,1.624,0.177,2.221,0.436v8.363c-0.592,0.187-1.441,0.396-2.521,0.502c1.012-0.037,1.895,0.191,2.521,0.424
								v4.044c0,0.793-0.642,1.435-1.435,1.435H1.435C0.642,22.88,0,22.237,0,21.445l0-2.494
								C0.935,18.556,2.129,18.105,3.035,17.945z"/>
						</defs>
						<clipPath id="SVGID_11_">
							<use xlink:href="#SVGID_1971_"  style="overflow:visible;"/>
						</clipPath>
						<g style="opacity:0.7;clip-path:url(#SVGID_11_);">
							<g style="opacity:0.5;">
								<path style="fill:#9D7248;" d="M5.988,3.501L5.988,3.501c0-0.128-0.104-0.232-0.232-0.232h-20.809
									c-0.128,0-0.232,0.104-0.232,0.232v0c0,0.128,0.104,0.232,0.232,0.232H5.756C5.884,3.732,5.988,3.629,5.988,3.501z"/>
								<path style="fill:#865E3F;" d="M35.874,14.191L35.874,14.191c0-0.128-0.104-0.232-0.232-0.232H-5.923
									c-0.128,0-0.232,0.104-0.232,0.232l0,0c0,0.128,0.104,0.232,0.232,0.232h41.565C35.77,14.423,35.874,14.319,35.874,14.191z"
									/>
								<path style="fill:#79563B;" d="M45.224,23.397L45.224,23.397c0-0.128-0.104-0.232-0.232-0.232H4.344
									c-0.128,0-0.232,0.104-0.232,0.232l0,0c0,0.128,0.104,0.232,0.232,0.232h40.648C45.12,23.629,45.224,23.525,45.224,23.397z"
									/>
								<path style="fill:#795539;" d="M9.485,0.933L9.485,0.933c0-0.128-0.104-0.232-0.232-0.232H-7.541
									c-0.128,0-0.232,0.104-0.232,0.232v0c0,0.128,0.104,0.232,0.232,0.232H9.254C9.382,1.164,9.485,1.061,9.485,0.933z"/>
								<path style="fill:#9D7248;" d="M34.256,6.735L34.256,6.735c0-0.128-0.104-0.232-0.232-0.232H-7.541
									c-0.128,0-0.232,0.104-0.232,0.232v0c0,0.128,0.104,0.232,0.232,0.232h41.565C34.152,6.967,34.256,6.863,34.256,6.735z"/>
								<path style="fill:#9A7D4E;" d="M28.39,22.229L28.39,22.229c0-0.128-0.104-0.232-0.232-0.232h-9.285
									c-0.128,0-0.232,0.104-0.232,0.232l0,0c0,0.128,0.104,0.232,0.232,0.232h9.285C28.286,22.461,28.39,22.357,28.39,22.229z"/>
								<path style="fill:#865E3F;" d="M64.732,21.744L64.732,21.744c0-0.128-0.104-0.232-0.232-0.232H33.917
									c-0.128,0-0.232,0.104-0.232,0.232l0,0c0,0.128,0.104,0.232,0.232,0.232H64.5C64.628,21.976,64.732,21.872,64.732,21.744z"
									/>
								<path style="fill:#79563B;" d="M46.362,9.808L46.362,9.808c0-0.128-0.104-0.232-0.232-0.232H-5.5
									c-0.128,0-0.232,0.104-0.232,0.232l0,0c0,0.128,0.104,0.232,0.232,0.232h51.63C46.258,10.04,46.362,9.936,46.362,9.808z"/>
								<path style="fill:#865E3F;" d="M33.178,5.048L33.178,5.048c0-0.128-0.104-0.232-0.232-0.232H5.17
									c-0.128,0-0.232,0.104-0.232,0.232v0c0,0.128,0.104,0.232,0.232,0.232h27.776C33.074,5.28,33.178,5.176,33.178,5.048z"/>
								<path style="fill:#795539;" d="M68.346,2.987L68.346,2.987c0-0.128-0.104-0.232-0.232-0.232H51.32
									c-0.128,0-0.232,0.104-0.232,0.232v0c0,0.128,0.104,0.232,0.232,0.232h16.794C68.242,3.219,68.346,3.115,68.346,2.987z"/>
								<path style="fill:#9D7248;" d="M69.296,16.819L69.296,16.819c0-0.128-0.104-0.232-0.232-0.232H48.255
									c-0.128,0-0.232,0.104-0.232,0.232l0,0c0,0.128,0.104,0.232,0.232,0.232h20.809C69.192,17.051,69.296,16.947,69.296,16.819z
									"/>
								<path style="fill:#865E3F;" d="M69.866,9L69.866,9c0-0.128-0.104-0.232-0.232-0.232H39.051
									c-0.128,0-0.232,0.104-0.232,0.232l0,0c0,0.128,0.104,0.232,0.232,0.232h30.583C69.762,9.232,69.866,9.128,69.866,9z"/>
								<path style="fill:#79563B;" d="M67.644,14.803L67.644,14.803c0-0.128-0.104-0.232-0.232-0.232H26.764
									c-0.128,0-0.232,0.104-0.232,0.232v0c0,0.128,0.104,0.232,0.232,0.232h40.648C67.54,15.034,67.644,14.931,67.644,14.803z"/>
								<path style="fill:#865E3F;" d="M50.779,19.859L50.779,19.859c0-0.128-0.104-0.232-0.232-0.232H33.753
									c-0.128,0-0.232,0.104-0.232,0.232l0,0c0,0.128,0.104,0.232,0.232,0.232h16.794C50.675,20.091,50.779,19.987,50.779,19.859z
									"/>
								<path style="fill:#795539;" d="M85.632,7.137L85.632,7.137c0-0.128-0.104-0.232-0.232-0.232H68.606
									c-0.128,0-0.232,0.104-0.232,0.232v0c0,0.128,0.104,0.232,0.232,0.232H85.4C85.528,7.368,85.632,7.265,85.632,7.137z"/>
								<path style="fill:#9D7248;" d="M52.994,2.459L52.994,2.459c0-0.128-0.104-0.232-0.232-0.232H34.63
									c-0.128,0-0.232,0.104-0.232,0.232v0c0,0.128,0.104,0.232,0.232,0.232h18.132C52.89,2.691,52.994,2.587,52.994,2.459z"/>
								<path style="fill:#865E3F;" d="M87.152,13.15L87.152,13.15c0-0.128-0.104-0.232-0.232-0.232H56.337
									c-0.128,0-0.232,0.104-0.232,0.232l0,0c0,0.128,0.104,0.232,0.232,0.232H86.92C87.048,13.381,87.152,13.278,87.152,13.15z"
									/>
								<path style="fill:#79563B;" d="M80.354,4.617L80.354,4.617c0-0.128-0.104-0.232-0.232-0.232H39.474
									c-0.128,0-0.232,0.104-0.232,0.232v0c0,0.128,0.104,0.232,0.232,0.232h40.648C80.25,4.849,80.354,4.745,80.354,4.617z"/>
								<path style="fill:#865E3F;" d="M66.153,10.294L66.153,10.294c0-0.128-0.104-0.232-0.232-0.232H49.127
									c-0.128,0-0.232,0.104-0.232,0.232v0c0,0.128,0.104,0.232,0.232,0.232h16.794C66.049,10.526,66.153,10.422,66.153,10.294z"
									/>
							</g>
							<g style="opacity:0.5;">
								<path style="fill:#865E3F;" d="M133.531,18.295L133.531,18.295c0-0.128,0.104-0.232,0.232-0.232h30.583
									c0.128,0,0.232,0.104,0.232,0.232l0,0c0,0.128-0.104,0.232-0.232,0.232h-30.583
									C133.635,18.526,133.531,18.423,133.531,18.295z"/>
								<path style="fill:#865E3F;" d="M117.162,2.99L117.162,2.99c0-0.128,0.104-0.232,0.232-0.232h16.794
									c0.128,0,0.232,0.104,0.232,0.232v0c0,0.128-0.104,0.232-0.232,0.232h-16.794C117.266,3.222,117.162,3.118,117.162,2.99z"/>
								<path style="fill:#865E3F;" d="M98.703,23.829L98.703,23.829c0-0.128,0.104-0.232,0.232-0.232h30.583
									c0.128,0,0.232,0.104,0.232,0.232l0,0c0,0.128-0.104,0.232-0.232,0.232H98.935C98.807,24.061,98.703,23.957,98.703,23.829z"
									/>
								<path style="fill:#79563B;" d="M123.043,13.912L123.043,13.912c0-0.128,0.104-0.232,0.232-0.232h40.648
									c0.128,0,0.232,0.104,0.232,0.232v0c0,0.128-0.104,0.232-0.232,0.232h-40.648C123.147,14.143,123.043,14.04,123.043,13.912z
									"/>
								<path style="fill:#795539;" d="M101.059,7.091L101.059,7.091c0-0.128,0.104-0.232,0.232-0.232h16.794
									c0.128,0,0.232,0.104,0.232,0.232v0c0,0.128-0.104,0.232-0.232,0.232h-16.794C101.163,7.322,101.059,7.219,101.059,7.091z"
									/>
								<path style="fill:#865E3F;" d="M99.539,13.104L99.539,13.104c0-0.128,0.104-0.232,0.232-0.232h30.583
									c0.128,0,0.232,0.104,0.232,0.232v0c0,0.128-0.104,0.232-0.232,0.232H99.771C99.643,13.335,99.539,13.232,99.539,13.104z"/>
								<path style="fill:#79563B;" d="M101.761,18.906L101.761,18.906c0-0.128,0.104-0.232,0.232-0.232h40.648
									c0.128,0,0.232,0.104,0.232,0.232l0,0c0,0.128-0.104,0.232-0.232,0.232h-40.648
									C101.865,19.138,101.761,19.034,101.761,18.906z"/>
								<path style="fill:#865E3F;" d="M130.198,20.559L130.198,20.559c0-0.128,0.104-0.232,0.232-0.232h16.794
									c0.128,0,0.232,0.104,0.232,0.232l0,0c0,0.128-0.104,0.232-0.232,0.232H130.43
									C130.302,20.791,130.198,20.687,130.198,20.559z"/>
								<path style="fill:#795539;" d="M83.774,11.24L83.774,11.24c0-0.128,0.104-0.232,0.232-0.232h16.794
									c0.128,0,0.232,0.104,0.232,0.232l0,0c0,0.128-0.104,0.232-0.232,0.232H84.005C83.877,11.472,83.774,11.368,83.774,11.24z"
									/>
								<path style="fill:#9D7248;" d="M101.157,5.648L101.157,5.648c0-0.128,0.104-0.232,0.232-0.232h30.583
									c0.128,0,0.232,0.104,0.232,0.232v0c0,0.128-0.104,0.232-0.232,0.232h-30.583C101.261,5.88,101.157,5.776,101.157,5.648z"/>
								<path style="fill:#9A7D4E;" d="M113.003,11.451L113.003,11.451c0-0.128,0.104-0.232,0.232-0.232h9.285
									c0.128,0,0.232,0.104,0.232,0.232v0c0,0.128-0.104,0.232-0.232,0.232h-9.285C113.107,11.682,113.003,11.579,113.003,11.451z
									"/>
								<path style="fill:#865E3F;" d="M82.253,17.253L82.253,17.253c0-0.128,0.104-0.232,0.232-0.232h30.583
									c0.128,0,0.232,0.104,0.232,0.232l0,0c0,0.128-0.104,0.232-0.232,0.232H82.485C82.357,17.485,82.253,17.381,82.253,17.253z"
									/>
								<path style="fill:#79563B;" d="M89.051,8.721L89.051,8.721c0-0.128,0.104-0.232,0.232-0.232h40.648
									c0.128,0,0.232,0.104,0.232,0.232v0c0,0.128-0.104,0.232-0.232,0.232H89.283C89.155,8.952,89.051,8.849,89.051,8.721z"/>
								<path style="fill:#865E3F;" d="M103.252,14.398L103.252,14.398c0-0.128,0.104-0.232,0.232-0.232h16.794
									c0.128,0,0.232,0.104,0.232,0.232l0,0c0,0.128-0.104,0.232-0.232,0.232h-16.794
									C103.356,14.629,103.252,14.526,103.252,14.398z"/>
							</g>
						</g>
					</g>
				</g>
				<g>
					<g>
						<defs>
							<path id="SVGID_1973_" d="M3.035,17.945C1.692,17.936,0.706,17.838,0,17.723l0-1.722c0.541-0.192,1.222-0.379,2.034-0.486
								C1.261,15.554,0.566,15.382,0,15.161l0-5.754C0.58,9.235,1.359,9.055,2.334,8.96C1.417,8.993,0.611,8.807,0,8.599l0-7.164
								C0,0.642,0.642,0,1.435,0L149.57,0c0.793,0,1.435,0.642,1.435,1.435v3.2c-0.849,0.264-1.699,0.504-2.307,0.611
								c0.859,0.006,1.631,0.049,2.307,0.108v1.765c-0.568,0.217-1.309,0.436-2.221,0.557c0.863-0.043,1.624,0.177,2.221,0.436
								v8.363c-0.592,0.187-1.441,0.396-2.521,0.502c1.012-0.037,1.895,0.191,2.521,0.424v4.044c0,0.793-0.642,1.435-1.435,1.435
								H1.435C0.642,22.88,0,22.237,0,21.445l0-2.494C0.935,18.556,2.129,18.105,3.035,17.945z"/>
						</defs>
						<clipPath id="SVGID_12_">
							<use xlink:href="#SVGID_1973_"  style="overflow:visible;"/>
						</clipPath>
					</g>
				</g>
			</g>
		</g>
		<g style="opacity:0.7;">
			<rect x="20.021" y="2.109" style="fill:#0064AF;" width="2.187" height="2.187"/>
			<rect x="20.021" y="18.602" style="fill:#0064AF;" width="2.187" height="2.187"/>
			<rect x="3.018" y="2.109" style="fill:#0064AF;" width="2.187" height="2.187"/>
			<rect x="3.018" y="18.602" style="fill:#0064AF;" width="2.187" height="2.187"/>
			<g>
				<rect x="4.726" y="3.815" style="fill:none;stroke:#0064AF;stroke-miterlimit:10;" width="15.773" height="15.268"/>
				<rect x="6.104" y="5.195" style="fill:none;stroke:#0064AF;stroke-miterlimit:10;" width="13.018" height="12.507"/>
				<rect x="19.122" y="1.21" style="fill:none;stroke:#0064AF;stroke-miterlimit:10;" width="3.986" height="3.986"/>
				<rect x="19.122" y="17.703" style="fill:none;stroke:#0064AF;stroke-miterlimit:10;" width="3.986" height="3.986"/>
				<rect x="2.118" y="1.21" style="fill:none;stroke:#0064AF;stroke-miterlimit:10;" width="3.986" height="3.986"/>
				<rect x="2.118" y="17.703" style="fill:none;stroke:#0064AF;stroke-miterlimit:10;" width="3.986" height="3.986"/>
			</g>
		</g>
		
			<rect x="25.809" y="2.984" style="opacity:0.7;fill:none;stroke:#3C1F14;stroke-miterlimit:10;" width="121.599" height="16.908"/>
		<g style="opacity:0.5;">
			<polygon style="fill:#3C1F14;" points="23.591,22.88 26.203,20.723 28.814,22.88 			"/>
			<polygon style="fill:#3C1F14;" points="15.165,20.16 12.554,22.317 9.942,20.16 			"/>
			<polygon style="fill:#3C1F14;" points="30.727,22.88 33.339,20.723 35.951,22.88 			"/>
			<polygon style="fill:#3C1F14;" points="37.864,22.88 40.475,20.723 43.087,22.88 			"/>
			<polygon style="fill:#3C1F14;" points="45,22.88 47.612,20.723 50.223,22.88 			"/>
			<polygon style="fill:#3C1F14;" points="52.136,22.88 54.748,20.723 57.36,22.88 			"/>
			<polygon style="fill:#3C1F14;" points="59.273,22.88 61.884,20.723 64.496,22.88 			"/>
			<polygon style="fill:#3C1F14;" points="66.409,22.88 69.021,20.723 71.632,22.88 			"/>
			<polygon style="fill:#3C1F14;" points="73.545,22.88 76.157,20.723 78.769,22.88 			"/>
			<polygon style="fill:#3C1F14;" points="80.682,22.88 83.293,20.723 85.905,22.88 			"/>
			<polygon style="fill:#3C1F14;" points="87.818,22.88 90.43,20.723 93.041,22.88 			"/>
			<polygon style="fill:#3C1F14;" points="94.954,22.88 97.566,20.723 100.178,22.88 			"/>
			<polygon style="fill:#3C1F14;" points="102.091,22.88 104.702,20.723 107.314,22.88 			"/>
			<polygon style="fill:#3C1F14;" points="109.227,22.88 111.839,20.723 114.45,22.88 			"/>
			<polygon style="fill:#3C1F14;" points="116.363,22.88 118.975,20.723 121.587,22.88 			"/>
			<polygon style="fill:#3C1F14;" points="123.5,22.88 126.111,20.723 128.723,22.88 			"/>
			<polygon style="fill:#3C1F14;" points="130.636,22.88 133.248,20.723 135.859,22.88 			"/>
			<polygon style="fill:#3C1F14;" points="137.772,22.88 140.384,20.723 142.996,22.88 			"/>
			<polygon style="fill:#3C1F14;" points="144.909,22.88 147.52,20.723 150.132,22.88 			"/>
		</g>
		<g style="opacity:0.5;">
			<polygon style="fill:#3C1F14;" points="23.591,0 26.203,2.157 28.814,0 			"/>
			<polygon style="fill:#3C1F14;" points="15.165,2.811 12.554,0.655 9.942,2.811 			"/>
			<polygon style="fill:#3C1F14;" points="30.727,0 33.339,2.157 35.951,0 			"/>
			<polygon style="fill:#3C1F14;" points="37.864,0 40.475,2.157 43.087,0 			"/>
			<polygon style="fill:#3C1F14;" points="45,0 47.612,2.157 50.223,0 			"/>
			<polygon style="fill:#3C1F14;" points="52.136,0 54.748,2.157 57.36,0 			"/>
			<polygon style="fill:#3C1F14;" points="59.273,0 61.884,2.157 64.496,0 			"/>
			<polygon style="fill:#3C1F14;" points="66.409,0 69.021,2.157 71.632,0 			"/>
			<polygon style="fill:#3C1F14;" points="73.545,0 76.157,2.157 78.769,0 			"/>
			<polygon style="fill:#3C1F14;" points="80.682,0 83.293,2.157 85.905,0 			"/>
			<polygon style="fill:#3C1F14;" points="87.818,0 90.43,2.157 93.041,0 			"/>
			<polygon style="fill:#3C1F14;" points="94.954,0 97.566,2.157 100.178,0 			"/>
			<polygon style="fill:#3C1F14;" points="102.091,0 104.702,2.157 107.314,0 			"/>
			<polygon style="fill:#3C1F14;" points="109.227,0 111.839,2.157 114.45,0 			"/>
			<polygon style="fill:#3C1F14;" points="116.363,0 118.975,2.157 121.587,0 			"/>
			<polygon style="fill:#3C1F14;" points="123.5,0 126.111,2.157 128.723,0 			"/>
			<polygon style="fill:#3C1F14;" points="130.636,0 133.248,2.157 135.859,0 			"/>
			<polygon style="fill:#3C1F14;" points="137.772,0 140.384,2.157 142.996,0 			"/>
			<polygon style="fill:#3C1F14;" points="144.909,0 147.52,2.157 150.132,0 			"/>
		</g>
		<polygon style="opacity:0.7;fill:#3C1F14;" points="21.461,14.061 23.618,11.449 21.461,8.837 		"/>
		<polygon style="opacity:0.7;fill:#3C1F14;" points="3.798,8.837 1.642,11.449 3.798,14.061 		"/>
	</g>
</g>
</svg>
