<?xml version="1.0" encoding="iso-8859-1"?>
<!-- Generator: Adobe Illustrator 19.0.1, SVG Export Plug-In . SVG Version: 6.00 Build 0)  -->
<svg version="1.1" xmlns="http://www.w3.org/2000/svg" xmlns:xlink="http://www.w3.org/1999/xlink" x="0px" y="0px"
	 viewBox="0 0 80.621 33.386" style="enable-background:new 0 0 80.621 33.386;" xml:space="preserve">
<g id="&#x5716;&#x5C64;_2">
</g>
<g id="&#x5716;&#x5C64;_1">
	<g>
	</g>
</g>
<g id="&#x5716;&#x5C64;_3">
	<g style="opacity:0.3;">
		<path style="fill:#1A1A1A;" d="M81.388,16.881C81.211,3.797,62.474,0.945,40.104,0.942C17.734,0.947-0.592,3.797-0.767,16.881
			C-0.68,29.964,18.27,32.863,40.695,32.866c6.979,0,13.509-0.28,19.222-1.056c2.48,2.062,6.84,4.332,13.135,2.25
			c-3.162-0.682-5.149-2.059-6.412-3.504C75.581,28.331,81.397,24.22,81.388,16.881z"/>
	</g>
	<g>
		<path style="fill:#1A1A1A;" d="M80.621,15.63c0,12.999-17.667,15.697-39.93,15.697S0,28.629,0,15.63S17.843,0,40.106,0
			S80.621,2.631,80.621,15.63z"/>
		<path style="fill:#1A1A1A;" d="M57.329,27.867c0,0,5.386,8.007,15.401,4.734c-8.309-1.826-8.671-8.314-8.671-8.314L57.329,27.867z
			"/>
		<g>
			<path style="fill:none;stroke:#FFF8DC;stroke-width:0.5;stroke-miterlimit:10;stroke-dasharray:1.4925,0.995;" d="M78.469,15.634
				c0,11.272-16.724,13.611-37.799,13.611S2.152,26.906,2.152,15.634S19.042,2.081,40.117,2.081S78.469,4.362,78.469,15.634z"/>
		</g>
	</g>
</g>
</svg>
