<?xml version="1.0" encoding="iso-8859-1"?>
<!-- Generator: Adobe Illustrator 19.0.1, SVG Export Plug-In . SVG Version: 6.00 Build 0)  -->
<svg version="1.1" xmlns="http://www.w3.org/2000/svg" xmlns:xlink="http://www.w3.org/1999/xlink" x="0px" y="0px"
	 viewBox="0 0 229.895 473.71" style="enable-background:new 0 0 229.895 473.71;" xml:space="preserve">
<g id="&#x5716;&#x5C64;_2">
</g>
<g id="&#x5716;&#x5C64;_1">
</g>
<g id="&#x5716;&#x5C64;_3">
	<g>
		<path style="fill:#EDECEC;" d="M3.105,136.923H0.704c-0.389,0-0.704-0.315-0.704-0.704v-33.296c0-0.389,0.315-0.704,0.704-0.704
			h2.401c0.389,0,0.704,0.315,0.704,0.704v33.296C3.809,136.608,3.494,136.923,3.105,136.923z"/>
		<path style="fill:#EDECEC;" d="M3.105,78.704H0.704C0.315,78.704,0,78.389,0,78V60.321c0-0.389,0.315-0.704,0.704-0.704h2.401
			c0.389,0,0.704,0.315,0.704,0.704V78C3.809,78.389,3.494,78.704,3.105,78.704z"/>
		<path style="fill:#EDECEC;" d="M3.105,178.782H0.704c-0.389,0-0.704-0.315-0.704-0.704v-33.296c0-0.389,0.315-0.704,0.704-0.704
			h2.401c0.389,0,0.704,0.315,0.704,0.704v33.296C3.809,178.467,3.494,178.782,3.105,178.782z"/>
		<path style="fill:#EDECEC;" d="M229.191,136.923h-2.401c-0.389,0-0.704-0.315-0.704-0.704v-33.296
			c0-0.389,0.315-0.704,0.704-0.704h2.401c0.389,0,0.704,0.315,0.704,0.704v33.296C229.895,136.608,229.58,136.923,229.191,136.923z
			"/>
		<path style="fill:#D9D9D9;" d="M201.824,0H28.376C13.981,0,2.312,11.669,2.312,26.064v421.581
			c0,14.395,11.669,26.064,26.064,26.064h173.448c14.395,0,26.064-11.669,26.064-26.064V26.064C227.888,11.669,216.219,0,201.824,0z
			 M217.477,419.051H12.723V54.659h204.754V419.051z"/>
		<path style="fill:#F5F5F5;" d="M201.352,2.603H28.848c-13.218,0-23.933,10.715-23.933,23.933v420.638
			c0,13.218,10.715,23.933,23.933,23.933h172.504c13.218,0,23.933-10.715,23.933-23.933V26.536
			C225.285,13.318,214.57,2.603,201.352,2.603z M217.477,419.051H12.723V54.659h204.754V419.051z"/>
		<path style="fill:#3C3A39;" d="M131.902,32.874H98.298c-0.783,0-1.417-0.635-1.417-1.417v-0.636c0-0.783,0.635-1.417,1.417-1.417
			h33.605c0.783,0,1.417,0.635,1.417,1.417v0.636C133.32,32.24,132.685,32.874,131.902,32.874z"/>
		<path style="fill:#FFFFFF;" d="M201.352,2.603l-19.167,52.056h35.292v364.392H48.015l-19.167,52.056h172.504
			c13.218,0,23.933-10.715,23.933-23.933V26.536C225.285,13.318,214.57,2.603,201.352,2.603z"/>
		<circle style="fill:#3C3A39;" cx="80.521" cy="31.139" r="3.123"/>
		<circle style="fill:#3C3A39;" cx="115.1" cy="15.079" r="2.429"/>
		<linearGradient id="SVGID_1_" gradientUnits="userSpaceOnUse" x1="99.2043" y1="435.7127" x2="130.9959" y2="454.0676">
			<stop  offset="0.2183" style="stop-color:#C6C7C7"/>
			<stop  offset="0.3296" style="stop-color:#C6C7C7"/>
			<stop  offset="0.3403" style="stop-color:#EDECEC"/>
			<stop  offset="0.436" style="stop-color:#EDECEC"/>
			<stop  offset="0.456" style="stop-color:#9C9C9D"/>
			<stop  offset="0.696" style="stop-color:#9C9C9D"/>
			<stop  offset="0.7117" style="stop-color:#C6C7C7"/>
		</linearGradient>
		<circle style="fill:none;stroke:url(#SVGID_1_);stroke-width:2;stroke-miterlimit:10;" cx="115.1" cy="444.89" r="17.352"/>
		
			<rect x="12.723" y="54.659" style="fill:none;stroke:#717071;stroke-linejoin:round;stroke-miterlimit:10;" width="204.754" height="364.392"/>
	</g>
</g>
</svg>
