<?xml version="1.0" encoding="iso-8859-1"?>
<!-- Generator: Adobe Illustrator 19.0.1, SVG Export Plug-In . SVG Version: 6.00 Build 0)  -->
<svg version="1.1" xmlns="http://www.w3.org/2000/svg" xmlns:xlink="http://www.w3.org/1999/xlink" x="0px" y="0px"
	 viewBox="0 0 19.088 48.36" style="enable-background:new 0 0 19.088 48.36;" xml:space="preserve">
<g id="&#x5716;&#x5C64;_2">
</g>
<g id="&#x5716;&#x5C64;_1">
	<g>
		<g>
			<defs>
				<path id="SVGID_1202_" d="M115.812,157.099l-6.68-0.802c-0.24-0.029-0.459-0.151-0.609-0.34l-1.567-1.972
					c-0.41-0.516-1.214-0.445-1.527,0.135l-0.258,0.478c-0.068,0.125-0.163,0.233-0.279,0.315l-9.303,6.549
					c-0.257,0.181-0.403,0.48-0.389,0.794l0.173,3.717c0.017,0.36,0.243,0.677,0.578,0.81l1.538,0.612
					c0.331,0.132,0.555,0.442,0.577,0.798l0.352,5.812c0.02,0.337-0.146,0.658-0.433,0.836l-7.801,4.829
					c-0.338,0.209-0.773,0.177-1.076-0.08l-1.919-1.624c-0.195-0.165-0.45-0.241-0.704-0.211l-2.377,0.289
					c-0.324,0.039-0.644-0.096-0.842-0.356l-3.607-4.745c-0.174-0.229-0.445-0.363-0.732-0.363l-17.517,0.023
					c-0.157,0-0.312-0.04-0.449-0.116l-9.927-5.541c-0.153-0.086-0.279-0.213-0.362-0.368l-3.195-5.963
					c-0.179-0.333-0.543-0.523-0.919-0.478l-23.697,2.85c-0.366,0.044-0.722-0.135-0.906-0.454l-4.865-8.463
					c-0.181-0.316-0.159-0.709,0.056-1.002l0.609-0.827c0.184-0.25,0.229-0.576,0.12-0.867l-3.862-10.297
					c-0.075-0.2-0.078-0.42-0.008-0.622l2.141-6.209c0.102-0.295,0.047-0.621-0.146-0.867l-4.703-5.986
					c-0.184-0.235-0.243-0.544-0.158-0.83l4.474-14.988c0.124-0.417,0.524-0.689,0.957-0.652l3.725,0.315
					c0.462,0.039,0.88-0.272,0.976-0.725l2.162-10.224c0.069-0.324,0.306-0.586,0.622-0.686l3.51-1.108
					c0.342-0.108,0.59-0.406,0.635-0.762l0.803-6.423c0.052-0.418-0.186-0.817-0.578-0.97l-2.869-1.116
					c-0.452-0.176-0.69-0.674-0.542-1.136l2.025-6.323c0.104-0.325,0.38-0.566,0.716-0.624l8.254-1.444
					c0.255-0.045,0.48-0.195,0.619-0.415l1.262-2.002c0.226-0.359,0.668-0.516,1.07-0.38l15.052,5.078
					c0.369,0.125,0.62,0.469,0.625,0.859l0.013,1.067c0.005,0.397,0.265,0.746,0.643,0.865l7.144,2.24
					c0.089,0.028,0.182,0.042,0.276,0.042l7.828-0.008c0.448,0,0.83,0.322,0.906,0.763l1.028,5.989
					c0.021,0.12,0.065,0.234,0.13,0.336l3.718,5.864c0.162,0.255,0.438,0.414,0.74,0.426l10.504,0.412
					c0.117,0.005,0.234-0.013,0.345-0.053l22.479-8.031c0.38-0.136,0.627-0.503,0.608-0.906l-0.121-2.684
					c-0.014-0.306,0.126-0.599,0.373-0.781l8.443-6.221c0.209-0.154,0.473-0.212,0.727-0.161l19.475,3.941
					c0.246,0.05,0.461,0.198,0.595,0.411l11.267,17.897c0.102,0.162,0.151,0.352,0.14,0.543l-1.053,17.893
					c-0.019,0.326-0.21,0.617-0.501,0.765l-2.582,1.309c-0.19,0.097-0.341,0.256-0.426,0.452l-3.333,7.647
					c-0.072,0.166-0.192,0.307-0.345,0.405l-11.986,7.72c-0.126,0.081-0.269,0.13-0.418,0.143l-3.947,0.343
					c-0.397,0.034-0.726,0.32-0.815,0.708l-1.035,4.485c-0.05,0.215-0.175,0.405-0.354,0.535l-4.608,3.362
					c-0.098,0.072-0.181,0.162-0.244,0.266l-3.54,5.838C116.519,156.972,116.17,157.142,115.812,157.099z"/>
			</defs>
			<clipPath id="SVGID_1_">
				<use xlink:href="#SVGID_1202_"  style="overflow:visible;"/>
			</clipPath>
		</g>
	</g>
	<g>
		<path style="fill:#FFFFFF;" d="M4.514,16.681c0.735-2.227,1.676-4.359,2.902-6.364c1.074-1.756,2.354-3.349,3.773-4.834
			c0.107-0.112,0.195-0.272,0.511-0.248c-1.729,1.918-3.37,3.818-4.456,6.112l0.006-0.008c-0.994,1.727-1.806,3.528-2.245,5.483
			l0.005-0.008c-0.456,1.212-0.636,2.486-0.792,3.758c-0.326,2.667-0.273,5.332,0.185,7.984c0.01,0.055,0.029,0.108,0.087,0.325
			c-0.178-2.215,0.577-3.891,2.07-5.264c0.091-0.084,0.18-0.175,0.284-0.241c0.168-0.106,0.322-0.339,0.537-0.237
			c0.225,0.107,0.135,0.371,0.117,0.564c-0.13,1.406-0.335,2.798-0.855,4.123c-0.291,0.742-0.688,1.416-1.294,1.949
			c-0.193,0.17-0.389,0.37-0.732-0.129c0.321,1.548,0.724,2.84,1.35,4.085c0-0.539-0.035-1.081,0.007-1.617
			c0.106-1.377,0.713-2.536,1.632-3.544c0.093-0.102,0.19-0.25,0.358-0.182c0.128,0.051,0.142,0.197,0.159,0.319
			c0.226,1.586,0.337,3.175-0.025,4.754C7.918,34.252,7.646,35.022,7,35.573c-0.202,0.172-0.152,0.311-0.061,0.48
			c0.578,1.069,1.162,2.134,1.931,3.097c-0.803-1.887-0.699-3.716,0.303-5.489c0.105-0.186,0.163-0.496,0.432-0.465
			c0.259,0.03,0.268,0.341,0.339,0.545c0.567,1.632,1.021,3.283,0.827,5.041c-0.067,0.606-0.202,1.189-0.548,1.696
			c-0.126,0.185-0.156,0.305-0.004,0.484c0.791,0.932,1.63,1.816,2.587,2.608c-0.646-0.984-1.057-2.041-1.174-3.213
			c-0.091-0.909,0.079-1.773,0.353-2.627c0.135-0.422,0.329-0.429,0.57-0.061c1.055,1.61,1.909,3.304,2.141,5.245
			c0.073,0.612,0.108,1.241-0.313,1.778c-0.217,0.277,0.121,0.299,0.212,0.37c1.181,0.92,2.48,1.654,3.796,2.36
			c0.11,0.059,0.221,0.114,0.331,0.173c0.218,0.117,0.481,0.201,0.31,0.548c-0.169,0.342-0.393,0.206-0.62,0.091
			c-0.963-0.486-1.897-1.021-2.803-1.608c-0.243-0.158-0.506-0.296-0.721-0.487c-0.55-0.489-1.037-0.647-1.785-0.229
			c-0.934,0.521-1.989,0.29-2.959-0.07c-1.704-0.633-3.152-1.646-4.309-3.056c-0.111-0.135-0.335-0.271-0.23-0.467
			c0.121-0.225,0.37-0.107,0.566-0.087c2.044,0.206,3.987,0.738,5.771,1.787c0.064,0.038,0.139,0.058,0.239,0.047
			c-1.078-1.062-2.063-2.198-3.046-3.334c-0.262-0.346-0.523-0.692-0.784-1.037c-0.886-1.392-1.735-2.804-2.442-4.298
			c-0.103-0.199-0.205-0.397-0.307-0.596c-0.542-1.476-1.122-2.94-1.45-4.485c-0.015-0.071,0.012-0.235-0.164-0.181
			c-0.95,0.291-1.544-0.362-2.042-0.928c-1.532-1.74-1.98-3.867-1.945-6.127c0.002-0.099-0.01-0.222,0.108-0.267
			c0.146-0.055,0.228,0.068,0.311,0.152c0.601,0.605,1.12,1.277,1.595,1.983c0.79,1.175,1.403,2.437,1.812,3.8
			c-0.143-1.272-0.311-2.539-0.339-3.818c-0.053-2.456,0.222-4.878,0.791-7.267c0.048-0.201,0.074-0.407,0.111-0.61
			C4.432,16.927,4.473,16.804,4.514,16.681z"/>
		<path style="fill:#FFFFFF;" d="M8.353,39.693c0.261,0.346,0.523,0.691,0.784,1.037c0.276,0.468,0.078,0.664-0.4,0.72
			c-1.111,0.129-2.087-0.245-2.991-0.83c-1.405-0.91-2.463-2.142-3.23-3.623c-0.099-0.192-0.332-0.422-0.176-0.614
			c0.161-0.198,0.427-0.011,0.634,0.06C5.005,37.131,6.804,38.205,8.353,39.693z"/>
		<path style="fill:#FFFFFF;" d="M5.604,34.799c0.102,0.199,0.205,0.397,0.307,0.596c0.092,0.73-0.003,0.839-0.731,0.706
			c-1.373-0.251-2.315-1.132-3.091-2.217c-0.752-1.05-1.316-2.196-1.599-3.465c-0.043-0.193-0.202-0.441-0.013-0.581
			c0.187-0.139,0.381,0.074,0.547,0.182C2.922,31.255,4.524,32.777,5.604,34.799z"/>
		<path style="fill:#FFFFFF;" d="M3.398,22.315c0,0.351,0.033,0.706-0.007,1.052c-0.068,0.581-0.236,0.645-0.706,0.318
			c-0.67-0.467-1.116-1.116-1.378-1.868c-0.614-1.764-0.636-3.562-0.19-5.37c0.038-0.154,0.053-0.369,0.239-0.395
			c0.193-0.026,0.255,0.184,0.332,0.323C2.711,18.225,3.428,20.166,3.398,22.315z"/>
		<path style="fill:#FFFFFF;" d="M4.514,16.681c-0.041,0.123-0.082,0.247-0.123,0.37c-0.435,0.7-0.535,0.698-1.034-0.008
			c-0.671-0.949-0.813-2.027-0.726-3.141c0.098-1.248,0.406-2.448,0.999-3.562c0.085-0.16,0.139-0.415,0.34-0.403
			c0.253,0.016,0.243,0.305,0.298,0.49C4.875,12.49,5.001,14.574,4.514,16.681z"/>
		<path style="fill:#FFFFFF;" d="M8.028,6.01c-0.033,1.797-0.303,3.538-1.259,5.108C6.705,11.224,6.64,11.33,6.567,11.43
			c-0.382,0.522-0.559,0.508-0.833-0.1c-0.322-0.715-0.391-1.46-0.273-2.24C5.714,7.417,6.485,6.009,7.59,4.76
			c0.08-0.09,0.156-0.216,0.3-0.176c0.153,0.043,0.133,0.194,0.136,0.31C8.033,5.266,8.028,5.638,8.028,6.01z"/>
		<path style="fill:#FFFFFF;" d="M4.096,22.981c0.013-2.118,1.654-4.402,3.56-5.035c0.261-0.087,0.549-0.167,0.423,0.278
			c-0.516,1.826-1.219,3.56-2.562,4.96c-0.085,0.089-0.182,0.171-0.286,0.237c-0.301,0.194-0.574,0.632-0.945,0.454
			C3.937,23.706,4.166,23.23,4.096,22.981z"/>
		<path style="fill:#FFFFFF;" d="M9.18,5.53c0.207-1.876,1.174-3.327,2.534-4.556c0.275-0.249,0.579-0.47,0.886-0.679
			c0.301-0.205,0.442-0.053,0.376,0.255c-0.48,2.238-1.224,4.346-3.003,5.929c-0.356,0.317-0.579,0.27-0.674-0.208
			C9.251,6.028,9.22,5.783,9.18,5.53z"/>
		<path style="fill:#FFFFFF;" d="M5.005,16.821c0.701-1.931,2.061-3.145,4.027-3.697c0.158-0.044,0.323-0.069,0.486-0.09
			c0.282-0.037,0.415,0.067,0.267,0.346c-0.934,1.755-2.043,3.364-3.878,4.298c-0.854,0.435-0.996,0.32-0.921-0.619
			c0.007-0.082,0.016-0.165,0.024-0.247L5.005,16.821z"/>
		<path style="fill:#FFFFFF;" d="M7.244,11.346c1.009-1.505,2.386-2.443,4.195-2.699c0.397-0.056,0.955-0.269,1.15,0.092
			c0.179,0.332-0.336,0.643-0.591,0.922c-0.816,0.888-1.697,1.703-2.806,2.22c-0.299,0.139-0.608,0.266-0.924,0.359
			c-1.141,0.337-1.281,0.209-1.018-0.902L7.244,11.346z"/>
		<path style="fill:#FFFFFF;" d="M14.888,4.712c0.422-0.024,0.829,0.06,1.236,0.136c0.122,0.023,0.263,0.037,0.314,0.166
			c0.058,0.147-0.075,0.221-0.168,0.295c-1.433,1.131-2.963,2.062-4.828,2.269c-0.37,0.041-0.866,0.1-1.043-0.202
			C10.198,7.034,10.6,6.7,10.837,6.432C11.909,5.214,13.321,4.771,14.888,4.712z"/>
		<path style="fill:#FFFFFF;" d="M18.422,0c0.18,0.018,0.347-0.034,0.435,0.118c0.078,0.134-0.034,0.235-0.112,0.325
			c-1.238,1.428-2.63,2.644-4.474,3.234c-0.079,0.025-0.159,0.055-0.24,0.064c-0.261,0.03-0.575,0.166-0.755-0.083
			c-0.159-0.22,0.02-0.484,0.138-0.696c0.92-1.644,2.428-2.429,4.189-2.831C17.885,0.066,18.175,0.039,18.422,0z"/>
	</g>
	<g>
	</g>
</g>
<g id="&#x5716;&#x5C64;_3">
</g>
</svg>
