<?xml version="1.0" encoding="iso-8859-1"?>
<!-- Generator: Adobe Illustrator 19.0.1, SVG Export Plug-In . SVG Version: 6.00 Build 0)  -->
<svg version="1.1" xmlns="http://www.w3.org/2000/svg" xmlns:xlink="http://www.w3.org/1999/xlink" x="0px" y="0px"
	 viewBox="0 0 19.179 48.372" style="enable-background:new 0 0 19.179 48.372;" xml:space="preserve">
<g id="&#x5716;&#x5C64;_2">
</g>
<g id="&#x5716;&#x5C64;_1">
	<g>
		<path style="fill:#FFFFFF;" d="M11.637,10.967c-0.638-1.41-1.588-2.613-2.542-3.812c-0.684-0.86-1.464-1.634-2.244-2.407
			C6.698,4.597,6.558,4.434,6.458,4.234C7.605,5.182,8.661,6.215,9.597,7.37c2.068,2.552,3.622,5.388,4.699,8.489
			c0.054,0.155,0.133,0.302,0.2,0.453c0.134,0.142,0.062,0.335,0.123,0.496c0.535,2,0.804,4.044,1,6.1L15.614,22.9
			c0.083,1.91-0.081,3.806-0.309,5.71c0.55-1.849,1.517-3.465,2.738-4.931c0.276-0.332,0.547-0.96,0.951-0.817
			c0.316,0.112,0.138,0.792,0.105,1.213c-0.108,1.42-0.447,2.783-1.148,4.035c-0.518,0.925-1.191,1.695-2.231,2.063
			c-0.303,0.107-0.586,0.186-0.643-0.453c-0.354,1.569-0.758,2.944-1.198,4.341c0.113-0.148,0.229-0.293,0.338-0.444
			c1.06-1.462,2.376-2.651,3.888-3.626c0.151-0.097,0.322-0.275,0.502-0.175c0.213,0.119,0.065,0.345,0.024,0.507
			c-0.542,2.127-1.509,3.987-3.381,5.26c-0.473,0.321-1.004,0.492-1.572,0.535c-0.264,0.02-0.547,0.048-0.644-0.434
			c-0.679,1.474-1.512,2.708-2.252,3.998c-0.332,0.365-0.666,0.728-0.907,1.163c-0.971,1.071-1.888,2.193-2.94,3.207
			c1.219-0.631,2.471-1.141,3.797-1.465c0.767-0.188,1.547-0.287,2.328-0.384c0.156-0.02,0.352-0.078,0.451,0.102
			c0.087,0.16-0.068,0.268-0.157,0.372c-1.495,1.747-3.27,3.04-5.591,3.45c-0.791,0.14-1.549,0.005-2.214-0.403
			c-0.371-0.227-0.576-0.142-0.864,0.077c-1.224,0.932-2.566,1.675-3.922,2.394c-0.22,0.117-0.479,0.346-0.688-0.026
			c-0.232-0.414,0.129-0.493,0.372-0.619c1.344-0.698,2.646-1.464,3.887-2.336c0.276-0.194,0.361-0.349,0.229-0.706
			c-0.319-0.867-0.199-1.759,0.024-2.632c0.383-1.503,1.08-2.864,1.921-4.157c0.089-0.136,0.171-0.338,0.35-0.316
			c0.216,0.027,0.241,0.267,0.292,0.438c0.532,1.769,0.425,3.475-0.508,5.1c-0.088,0.153-0.252,0.273-0.227,0.565
			c0.953-0.811,1.751-1.69,2.5-2.616c0.082-0.101,0.111-0.2,0.023-0.334c-0.833-1.275-0.752-2.678-0.529-4.085
			c0.153-0.962,0.42-1.902,0.773-2.812c0.07-0.181,0.087-0.463,0.336-0.467c0.231-0.004,0.3,0.26,0.397,0.434
			c0.9,1.603,1.104,3.276,0.487,5.027c-0.026,0.073-0.039,0.15-0.019,0.244c0.748-0.938,1.33-1.974,1.859-3.042
			c0.045-0.09,0.097-0.174-0.035-0.257c-0.75-0.469-0.982-1.255-1.176-2.036c-0.402-1.616-0.31-3.246-0.046-4.873
			c0.02-0.121,0.015-0.271,0.154-0.315c0.201-0.065,0.29,0.118,0.398,0.232c1.322,1.387,1.852,3.254,1.503,5.485
			c0.406-0.757,0.628-1.448,0.841-2.14c0.219-0.711,0.404-1.433,0.651-2.317c-0.445,0.547-0.698,0.258-0.942,0.005
			c-0.804-0.831-1.211-1.87-1.507-2.959c-0.267-0.982-0.401-1.988-0.467-3.002c-0.012-0.19-0.106-0.453,0.137-0.552
			c0.188-0.076,0.344,0.109,0.484,0.223c1.642,1.344,2.491,3.061,2.447,5.203c0.322-2.12,0.575-4.244,0.308-6.396l0.006,0.009
			c-0.084-1.783-0.298-3.545-0.877-5.245c0.003-0.166-0.013-0.327-0.109-0.471c-0.538-1.94-1.299-3.784-2.379-5.49L11.637,10.967z"
			/>
		<path style="fill:#FFFFFF;" d="M9.875,40.843c0.242-0.435,0.575-0.799,0.907-1.163c1.521-1.521,3.336-2.56,5.36-3.249
			c0.204-0.069,0.471-0.258,0.632-0.055c0.154,0.194-0.078,0.421-0.181,0.611c-0.832,1.535-1.929,2.833-3.436,3.749
			c-0.867,0.527-1.795,0.847-2.831,0.694C10.001,41.383,9.694,41.294,9.875,40.843z"/>
		<path style="fill:#FFFFFF;" d="M15.619,22.908c-0.034-2.319,0.622-4.452,1.753-6.454c0.093-0.165,0.147-0.464,0.398-0.405
			c0.215,0.051,0.2,0.333,0.246,0.53c0.369,1.582,0.372,3.163-0.056,4.731c-0.245,0.896-0.679,1.691-1.428,2.277
			c-0.177,0.138-0.363,0.357-0.594,0.271c-0.239-0.09-0.204-0.377-0.237-0.599c-0.018-0.121-0.057-0.239-0.086-0.359L15.619,22.908z
			"/>
		<path style="fill:#FFFFFF;" d="M14.619,16.808c-0.061-0.16,0.011-0.354-0.123-0.496c-0.405-1.993-0.221-3.954,0.338-5.891
			c0.054-0.186,0.039-0.471,0.3-0.479c0.203-0.006,0.252,0.249,0.331,0.409c0.79,1.614,1.228,3.295,0.926,5.106
			c-0.107,0.645-0.371,1.227-0.773,1.744c-0.42,0.541-0.532,0.53-0.817-0.07C14.749,17.02,14.68,16.915,14.619,16.808z"/>
		<path style="fill:#FFFFFF;" d="M13.671,9.728c0.033,0.618-0.1,1.193-0.383,1.741c-0.206,0.4-0.409,0.412-0.673,0.057
			c-0.708-0.952-1.099-2.039-1.321-3.186c-0.209-1.078-0.334-2.169-0.266-3.271c0.011-0.173-0.023-0.416,0.193-0.476
			c0.178-0.05,0.281,0.15,0.384,0.27C12.806,6.268,13.626,7.835,13.671,9.728z"/>
		<path style="fill:#FFFFFF;" d="M14.99,22.157c0.003,0.454,0.028,0.909,0.003,1.362c-0.021,0.389-0.221,0.503-0.581,0.291
			c-0.712-0.42-1.249-1.017-1.692-1.698c-0.748-1.152-1.295-2.398-1.649-3.725c-0.046-0.17-0.195-0.375-0.006-0.511
			c0.139-0.1,0.312,0.038,0.462,0.104c1.858,0.815,2.944,2.269,3.468,4.188L14.99,22.157z"/>
		<path style="fill:#FFFFFF;" d="M9.9,5.664C9.86,5.936,9.946,6.461,9.592,6.629C9.232,6.799,8.947,6.347,8.708,6.091
			c-1.444-1.548-2.15-3.453-2.571-5.485C6.11,0.474,6.054,0.307,6.194,0.203c0.098-0.072,0.201,0.015,0.281,0.071
			C8.271,1.53,9.568,3.124,9.899,5.365C9.908,5.426,9.9,5.489,9.9,5.664z"/>
		<path style="fill:#FFFFFF;" d="M14.011,16.45c0.096,0.143,0.112,0.305,0.109,0.471c-0.016,0.315,0.201,0.725-0.124,0.916
			c-0.292,0.172-0.635-0.077-0.924-0.226c-1.507-0.782-2.479-2.084-3.349-3.481c-0.044-0.07-0.089-0.141-0.118-0.218
			c-0.107-0.282-0.507-0.568-0.324-0.81c0.201-0.265,0.611-0.036,0.915,0.052c1.584,0.461,2.781,1.409,3.558,2.874
			C13.831,16.174,13.925,16.31,14.011,16.45z"/>
		<path style="fill:#FFFFFF;" d="M11.632,10.96c0.072,0.171,0.152,0.34,0.213,0.515c0.092,0.264,0.346,0.561,0.121,0.803
			c-0.204,0.219-0.553,0.096-0.83,0.034c-1.272-0.284-2.31-0.989-3.237-1.868c-0.435-0.412-0.838-0.858-1.243-1.3
			c-0.104-0.114-0.261-0.251-0.17-0.43C6.574,8.539,6.774,8.574,6.932,8.58c1.688,0.067,3.14,0.663,4.287,1.932
			c0.138,0.153,0.279,0.303,0.418,0.455L11.632,10.96z"/>
		<path style="fill:#FFFFFF;" d="M4.232,4.706c1.697,0.081,3.207,0.577,4.26,2.016C8.94,7.334,8.841,7.527,8.076,7.578
			c-0.54,0.036-1.069-0.077-1.586-0.233c-1.327-0.4-2.481-1.116-3.565-1.959C2.815,5.299,2.648,5.223,2.669,5.062
			c0.027-0.209,0.235-0.197,0.39-0.229C3.444,4.752,3.831,4.682,4.232,4.706z"/>
		<path style="fill:#FFFFFF;" d="M0.839,0.008c1.813,0.254,3.536,0.958,4.696,2.664C5.736,2.968,6.046,3.361,5.79,3.678
			c-0.226,0.28-0.667,0.084-0.997-0.021C2.949,3.066,1.57,1.831,0.331,0.407c-0.078-0.09-0.184-0.183-0.113-0.326
			C0.256,0.005,0.385-0.013,0.839,0.008z"/>
	</g>
	<g>
	</g>
</g>
<g id="&#x5716;&#x5C64;_3">
</g>
</svg>
