<?xml version="1.0" encoding="iso-8859-1"?>
<!-- Generator: Adobe Illustrator 19.0.1, SVG Export Plug-In . SVG Version: 6.00 Build 0)  -->
<svg version="1.1" xmlns="http://www.w3.org/2000/svg" xmlns:xlink="http://www.w3.org/1999/xlink" x="0px" y="0px"
	 viewBox="0 0 76.943 22.798" style="enable-background:new 0 0 76.943 22.798;" xml:space="preserve">
<g id="&#x5716;&#x5C64;_2">
</g>
<g id="&#x5716;&#x5C64;_1">
	<g>
		<path style="fill:#A6A6A6;" d="M74.205,22.798H2.695C1.209,22.798,0,21.585,0,20.1V2.694C0,1.208,1.209,0,2.695,0h71.51
			c1.485,0,2.737,1.208,2.737,2.694V20.1C76.943,21.585,75.69,22.798,74.205,22.798L74.205,22.798z"/>
		<path d="M76.391,20.101c0,1.206-0.977,2.183-2.185,2.183H2.695c-1.208,0-2.188-0.977-2.188-2.183V2.693
			c0-1.205,0.98-2.186,2.188-2.186h71.51c1.209,0,2.185,0.98,2.185,2.186L76.391,20.101L76.391,20.101z"/>
		<g>
			<g>
				<path style="fill:#FFFFFF;" d="M32.388,13.67h-3.546v6.207h-0.827V13.67h-2.925v-0.772h7.298V13.67z M32.229,17.084
					l-0.602,0.602c-0.859-0.815-1.746-1.589-2.662-2.323l0.574-0.545C30.467,15.544,31.364,16.3,32.229,17.084z"/>
				<path style="fill:#FFFFFF;" d="M37.57,16.237h-2.398c-0.163,0.288-0.298,0.518-0.405,0.687h0.687v-0.499h0.743v0.499h1.194
					v0.658h-1.194v0.536l1.279-0.113l-0.132,0.658l-1.147,0.104v1.072h-0.743v-1.016l-1.994,0.207l-0.084-0.734
					c0.765-0.037,1.458-0.078,2.078-0.122v-0.593H34.89c-0.458,0-0.815,0.041-1.072,0.123l-0.207-0.687
					c0.207-0.025,0.351-0.098,0.433-0.221c0.082-0.123,0.194-0.309,0.339-0.56h-0.875v-0.658h1.213
					c0.075-0.157,0.141-0.32,0.198-0.489l0.705,0.206l-0.132,0.283h2.078L37.57,16.237L37.57,16.237z M40.909,18.184
					c-0.101,0.74-0.207,1.2-0.32,1.383c-0.113,0.181-0.284,0.273-0.512,0.273s-0.473-0.116-0.734-0.348
					c-0.26-0.231-0.484-0.495-0.673-0.79c-0.382,0.382-0.874,0.781-1.476,1.195l-0.574-0.564c0.683-0.42,1.247-0.871,1.693-1.354
					c-0.156-0.464-0.27-1.036-0.339-1.717c-0.069-0.68-0.104-1.086-0.104-1.218h-4.429v-0.667h1.9v-0.536h-1.439v-0.668h1.439V12.41
					h0.752v0.761h1.354v0.668h-1.354v0.536h1.749L37.805,12.4h0.743c0,0.796,0.012,1.454,0.037,1.975h2.191v0.667h-2.163v0.095
					c0,0.125,0.022,0.434,0.066,0.926c0.044,0.492,0.104,0.898,0.178,1.218c0.32-0.476,0.586-1.047,0.799-1.712l0.687,0.264
					c-0.332,0.946-0.718,1.705-1.156,2.275c0.1,0.195,0.243,0.388,0.427,0.579c0.185,0.192,0.305,0.287,0.362,0.287
					c0.056,0,0.105-0.089,0.146-0.268c0.04-0.179,0.07-0.415,0.089-0.71L40.909,18.184z M40.608,13.763l-0.593,0.471
					c-0.339-0.414-0.699-0.802-1.081-1.167l0.555-0.461C39.934,13.04,40.307,13.425,40.608,13.763z"/>
			</g>
		</g>
		<g id="tUZ3sO_3_">
			<g>
				<path style="fill:#FFFFFF;" d="M12.853,8.355c1.467,0,2.934,0,4.401,0c0.021,0,0.042,0,0.063,0.001
					c0.026,0,0.038,0.014,0.039,0.039c0,0.016,0.001,0.032,0.001,0.048c0,2.272,0,4.544,0,6.815c0,0.592-0.399,1.063-0.982,1.159
					c-0.113,0.019-0.228,0.015-0.343,0.015c-0.12-0.001-0.24,0-0.359,0c-0.07,0-0.071,0.002-0.071,0.071c0,0.349,0,0.697,0,1.046
					c0,0.428-0.008,0.856,0.002,1.284c0.009,0.373-0.17,0.615-0.498,0.75c-0.362,0.149-0.719,0.12-1.046-0.104
					c-0.201-0.138-0.308-0.331-0.308-0.581c0.002-0.794,0.001-1.589,0.001-2.383c0-0.082,0-0.082-0.081-0.082
					c-0.548,0-1.095,0-1.643,0c-0.082,0-0.082,0-0.082,0.081c0,0.785-0.003,1.571,0.002,2.356c0.002,0.302-0.132,0.521-0.388,0.659
					c-0.393,0.211-0.787,0.197-1.159-0.053c-0.201-0.135-0.304-0.331-0.304-0.578c0.001-0.794,0-1.589,0-2.383
					c0-0.082,0-0.082-0.081-0.082c-0.166,0-0.331,0-0.497,0c-0.599-0.001-1.08-0.418-1.163-1.01
					c-0.007-0.047-0.005-0.095-0.005-0.142c0-2.282,0-4.565,0-6.847c0-0.076,0-0.077,0.082-0.077
					C9.905,8.355,11.379,8.355,12.853,8.355z"/>
				<path style="fill:#FFFFFF;" d="M12.852,7.735c-1.462,0-2.924,0-4.385,0c-0.021,0-0.042,0-0.063,0
					c-0.06-0.001-0.067-0.008-0.062-0.069c0.062-0.689,0.263-1.331,0.65-1.91c0.32-0.479,0.737-0.853,1.242-1.13
					c0.103-0.057,0.208-0.111,0.317-0.156c0.044-0.018,0.045-0.034,0.02-0.071c-0.224-0.331-0.446-0.664-0.668-0.996
					C9.887,3.379,9.871,3.356,9.86,3.33C9.829,3.259,9.854,3.184,9.92,3.141c0.062-0.04,0.134-0.033,0.188,0.022
					c0.018,0.019,0.033,0.041,0.048,0.063c0.235,0.351,0.471,0.702,0.705,1.054c0.027,0.041,0.051,0.051,0.099,0.035
					c0.377-0.123,0.763-0.196,1.157-0.236c0.34-0.034,0.682-0.047,1.023-0.031c0.495,0.024,0.986,0.083,1.462,0.228
					c0.044,0.013,0.089,0.023,0.131,0.04c0.042,0.017,0.066,0.006,0.091-0.031c0.123-0.187,0.249-0.372,0.373-0.558
					c0.118-0.176,0.234-0.352,0.352-0.527c0.07-0.103,0.183-0.112,0.257-0.024c0.046,0.055,0.048,0.12,0.002,0.19
					c-0.1,0.152-0.201,0.302-0.302,0.453c-0.131,0.196-0.262,0.393-0.395,0.588c-0.023,0.034-0.014,0.045,0.02,0.06
					c0.337,0.146,0.648,0.333,0.929,0.569c0.323,0.271,0.587,0.592,0.795,0.958c0.265,0.465,0.421,0.967,0.487,1.497
					c0.008,0.065,0.009,0.13,0.016,0.195c0.005,0.039-0.013,0.051-0.048,0.049c-0.019-0.001-0.039,0-0.058,0
					C15.786,7.735,14.319,7.735,12.852,7.735z M11.407,5.953c0-0.281-0.217-0.501-0.497-0.501c-0.271,0-0.495,0.224-0.496,0.495
					c-0.001,0.276,0.219,0.497,0.495,0.498C11.193,6.446,11.407,6.234,11.407,5.953z M14.766,6.445c0.28,0,0.497-0.216,0.497-0.494
					c0-0.277-0.22-0.498-0.496-0.498c-0.276,0-0.496,0.221-0.497,0.497C14.27,6.228,14.487,6.445,14.766,6.445z"/>
				<path style="fill:#FFFFFF;" d="M5.816,11.386c0-0.724,0.003-1.448-0.001-2.171c-0.002-0.308,0.14-0.524,0.4-0.669
					c0.382-0.214,0.867-0.171,1.204,0.106C7.581,8.785,7.665,8.96,7.665,9.173c0,0.851,0,1.701,0,2.552
					c0,0.602-0.005,1.205,0.002,1.807c0.004,0.341-0.153,0.576-0.45,0.712c-0.39,0.179-0.773,0.152-1.124-0.105
					c-0.183-0.134-0.278-0.321-0.278-0.554C5.817,12.851,5.816,12.118,5.816,11.386z"/>
				<path style="fill:#FFFFFF;" d="M18.061,11.382c0-0.722,0.006-1.444-0.003-2.166c-0.004-0.322,0.144-0.543,0.414-0.679
					c0.402-0.201,0.799-0.174,1.164,0.096c0.176,0.13,0.267,0.313,0.267,0.537c-0.001,1.46-0.003,2.919,0.002,4.379
					c0.001,0.303-0.135,0.514-0.386,0.661c-0.376,0.221-0.877,0.181-1.214-0.096c-0.157-0.129-0.245-0.295-0.245-0.505
					C18.062,12.868,18.061,12.125,18.061,11.382z"/>
			</g>
		</g>
		<g>
			<path style="fill:#FFFFFF;" d="M28.688,3.359l2.366,6.496h-1.111L29.234,7.91h-2.377c-0.109,0.313-0.228,0.637-0.354,0.975
				s-0.245,0.661-0.355,0.97h-1.121l2.397-6.496H28.688z M28.045,4.618l-0.91,2.541h1.815L28.045,4.618z"/>
			<path style="fill:#FFFFFF;" d="M31.62,5.164h1.08v0.38c0.206-0.154,0.428-0.269,0.666-0.345c0.238-0.075,0.481-0.112,0.728-0.112
				c0.247,0,0.468,0.033,0.661,0.1c0.194,0.067,0.357,0.162,0.491,0.286c0.134,0.123,0.236,0.273,0.307,0.449
				c0.07,0.177,0.105,0.375,0.105,0.595v3.338h-1.065V6.599c0-0.281-0.056-0.48-0.167-0.597s-0.265-0.175-0.46-0.175
				c-0.175,0-0.34,0.034-0.494,0.103c-0.154,0.069-0.289,0.16-0.403,0.272c-0.115,0.113-0.205,0.244-0.271,0.392
				S32.7,6.894,32.7,7.052v2.803h-1.08V5.164z"/>
			<path style="fill:#FFFFFF;" d="M40.755,9.855h-1.07V9.564c-0.15,0.125-0.318,0.221-0.504,0.288s-0.372,0.101-0.561,0.101
				c-0.343,0-0.645-0.063-0.905-0.19s-0.479-0.3-0.656-0.52c-0.176-0.219-0.31-0.477-0.398-0.771s-0.134-0.61-0.134-0.946
				s0.044-0.652,0.132-0.949c0.087-0.296,0.218-0.555,0.394-0.776c0.175-0.221,0.392-0.396,0.65-0.522
				c0.259-0.126,0.558-0.189,0.897-0.189c0.178,0,0.363,0.037,0.556,0.112c0.191,0.076,0.368,0.174,0.529,0.294V3.359h1.07V9.855z
				 M39.685,7.45c-0.007-0.227-0.034-0.438-0.082-0.635c-0.048-0.196-0.115-0.368-0.202-0.514c-0.088-0.146-0.194-0.261-0.321-0.346
				c-0.126-0.086-0.271-0.129-0.431-0.129c-0.164,0-0.312,0.045-0.441,0.134s-0.239,0.21-0.328,0.364s-0.156,0.334-0.203,0.539
				c-0.046,0.206-0.069,0.425-0.069,0.657c0,0.233,0.023,0.452,0.069,0.658c0.047,0.205,0.114,0.383,0.203,0.534
				c0.089,0.15,0.198,0.27,0.328,0.356s0.277,0.131,0.441,0.131s0.312-0.044,0.441-0.131s0.238-0.206,0.325-0.356
				c0.088-0.151,0.154-0.329,0.2-0.534c0.046-0.206,0.069-0.425,0.069-0.658V7.45z"/>
			<path style="fill:#FFFFFF;" d="M41.608,5.164h0.957l0.062,0.427c0.124-0.161,0.273-0.286,0.45-0.373
				c0.177-0.088,0.357-0.131,0.543-0.131c0.059,0,0.135,0.009,0.229,0.028c0.095,0.019,0.188,0.045,0.28,0.079V6.07
				c-0.295-0.11-0.472-0.165-0.529-0.165c-0.145,0-0.273,0.031-0.389,0.093s-0.212,0.145-0.29,0.249
				c-0.079,0.104-0.14,0.227-0.181,0.365s-0.062,0.284-0.062,0.435v2.809h-1.07V5.164z"/>
			<path style="fill:#FFFFFF;" d="M44.828,7.515c0-0.333,0.05-0.646,0.149-0.941s0.244-0.553,0.435-0.774
				c0.19-0.221,0.426-0.396,0.706-0.522c0.279-0.126,0.602-0.189,0.965-0.189c0.364,0,0.688,0.063,0.971,0.189
				c0.283,0.127,0.522,0.302,0.716,0.522c0.194,0.222,0.341,0.479,0.44,0.774s0.149,0.608,0.149,0.941
				c0,0.336-0.05,0.65-0.149,0.943s-0.246,0.55-0.44,0.769c-0.193,0.22-0.433,0.394-0.716,0.52c-0.283,0.127-0.606,0.19-0.971,0.19
				c-0.363,0-0.686-0.063-0.965-0.19c-0.28-0.126-0.516-0.3-0.706-0.52c-0.19-0.219-0.335-0.476-0.435-0.769
				S44.828,7.851,44.828,7.515z M45.893,7.512c0,0.232,0.027,0.45,0.082,0.652c0.055,0.202,0.134,0.379,0.237,0.531
				c0.103,0.152,0.228,0.272,0.375,0.359c0.147,0.088,0.312,0.131,0.494,0.131s0.346-0.043,0.493-0.131
				c0.147-0.087,0.273-0.207,0.378-0.359c0.105-0.152,0.186-0.329,0.242-0.531c0.057-0.202,0.085-0.42,0.085-0.652
				c0-0.229-0.028-0.447-0.085-0.652s-0.137-0.384-0.242-0.536c-0.104-0.153-0.23-0.273-0.378-0.362s-0.312-0.134-0.493-0.134
				s-0.347,0.045-0.494,0.134s-0.272,0.209-0.375,0.362c-0.104,0.152-0.183,0.331-0.237,0.536S45.893,7.282,45.893,7.512z"/>
			<path style="fill:#FFFFFF;" d="M51.453,3.359v0.926h-1.065V3.359H51.453z M51.453,5.164v4.69h-1.065v-4.69H51.453z"/>
			<path style="fill:#FFFFFF;" d="M56.632,9.855h-1.07V9.564c-0.15,0.125-0.318,0.221-0.504,0.288s-0.372,0.101-0.561,0.101
				c-0.343,0-0.645-0.063-0.905-0.19s-0.479-0.3-0.656-0.52c-0.176-0.219-0.31-0.477-0.398-0.771s-0.134-0.61-0.134-0.946
				s0.044-0.652,0.132-0.949c0.087-0.296,0.218-0.555,0.394-0.776c0.175-0.221,0.392-0.396,0.65-0.522
				c0.259-0.126,0.558-0.189,0.897-0.189c0.178,0,0.363,0.037,0.556,0.112c0.191,0.076,0.368,0.174,0.529,0.294V3.359h1.07V9.855z
				 M55.562,7.45c-0.007-0.227-0.034-0.438-0.082-0.635c-0.048-0.196-0.115-0.368-0.202-0.514c-0.088-0.146-0.194-0.261-0.321-0.346
				c-0.126-0.086-0.271-0.129-0.431-0.129c-0.164,0-0.312,0.045-0.441,0.134s-0.239,0.21-0.328,0.364S53.6,6.659,53.553,6.865
				c-0.046,0.206-0.069,0.425-0.069,0.657c0,0.233,0.023,0.452,0.069,0.658c0.047,0.205,0.114,0.383,0.203,0.534
				c0.089,0.15,0.198,0.27,0.328,0.356s0.277,0.131,0.441,0.131s0.312-0.044,0.441-0.131s0.238-0.206,0.325-0.356
				c0.088-0.151,0.154-0.329,0.2-0.534c0.046-0.206,0.069-0.425,0.069-0.658V7.45z"/>
		</g>
	</g>
</g>
<g id="&#x5716;&#x5C64;_3">
</g>
</svg>
