<?xml version="1.0" encoding="iso-8859-1"?>
<!-- Generator: Adobe Illustrator 19.0.1, SVG Export Plug-In . SVG Version: 6.00 Build 0)  -->
<svg version="1.1" xmlns="http://www.w3.org/2000/svg" xmlns:xlink="http://www.w3.org/1999/xlink" x="0px" y="0px"
	 viewBox="0 0 76.943 22.798" style="enable-background:new 0 0 76.943 22.798;" xml:space="preserve">
<g id="&#x5716;&#x5C64;_2">
</g>
<g id="&#x5716;&#x5C64;_1">
	<g>
		<path style="fill:#A6A6A6;" d="M74.205,22.798H2.695C1.209,22.798,0,21.585,0,20.1V2.694C0,1.208,1.209,0,2.695,0h71.51
			c1.485,0,2.737,1.208,2.737,2.694V20.1C76.943,21.585,75.69,22.798,74.205,22.798L74.205,22.798z"/>
		<path d="M76.391,20.101c0,1.206-0.977,2.183-2.185,2.183H2.695c-1.208,0-2.188-0.977-2.188-2.183V2.693
			c0-1.205,0.98-2.186,2.188-2.186h71.51c1.209,0,2.185,0.98,2.185,2.186L76.391,20.101L76.391,20.101z"/>
		<g>
			<g>
				<path style="fill:#FFFFFF;" d="M17.171,11.276c-0.017-1.837,1.504-2.731,1.574-2.772c-0.861-1.256-2.196-1.427-2.665-1.441
					c-1.121-0.118-2.209,0.671-2.78,0.671c-0.582,0-1.462-0.659-2.41-0.64C9.671,7.112,8.53,7.819,7.904,8.915
					c-1.291,2.236-0.328,5.522,0.909,7.329c0.619,0.885,1.342,1.873,2.289,1.839c0.926-0.038,1.272-0.59,2.39-0.59
					c1.107,0,1.432,0.59,2.398,0.568c0.994-0.016,1.62-0.889,2.217-1.782c0.715-1.015,1.003-2.014,1.014-2.065
					C19.097,14.205,17.19,13.477,17.171,11.276z"/>
				<path style="fill:#FFFFFF;" d="M15.347,5.874c0.498-0.623,0.839-1.47,0.744-2.331c-0.721,0.032-1.623,0.499-2.142,1.108
					c-0.459,0.537-0.87,1.417-0.764,2.244C13.996,6.956,14.828,6.487,15.347,5.874z"/>
			</g>
		</g>
		<g>
			<path style="fill:#FFFFFF;" d="M30.78,9.706h-1.143L29.01,7.737h-2.178l-0.597,1.969h-1.114l2.158-6.703h1.333L30.78,9.706z
				 M28.821,6.912l-0.567-1.75c-0.059-0.179-0.172-0.6-0.338-1.263h-0.02c-0.067,0.285-0.173,0.706-0.319,1.263l-0.557,1.75H28.821z
				"/>
			<path style="fill:#FFFFFF;" d="M36.329,7.23c0,0.822-0.222,1.472-0.666,1.949c-0.398,0.425-0.891,0.637-1.483,0.637
				c-0.635,0-1.093-0.229-1.371-0.686h-0.02v2.546h-1.074V6.464c0-0.518-0.013-1.048-0.04-1.591h0.945l0.06,0.766h0.019
				c0.358-0.577,0.902-0.866,1.631-0.866c0.571,0,1.046,0.226,1.428,0.677C36.139,5.901,36.329,6.494,36.329,7.23z M35.236,7.27
				c0-0.471-0.107-0.858-0.319-1.164c-0.233-0.318-0.544-0.477-0.935-0.477c-0.265,0-0.506,0.088-0.722,0.263
				c-0.216,0.176-0.356,0.406-0.423,0.691c-0.034,0.132-0.049,0.242-0.049,0.328v0.806c0,0.352,0.107,0.648,0.323,0.89
				c0.216,0.242,0.495,0.363,0.841,0.363c0.404,0,0.719-0.156,0.945-0.467C35.123,8.191,35.236,7.78,35.236,7.27z"/>
			<path style="fill:#FFFFFF;" d="M41.889,7.23c0,0.822-0.222,1.472-0.666,1.949c-0.398,0.425-0.891,0.637-1.482,0.637
				c-0.636,0-1.094-0.229-1.372-0.686h-0.02v2.546h-1.074V6.464c0-0.518-0.013-1.048-0.039-1.591h0.944l0.059,0.766h0.02
				c0.358-0.577,0.902-0.866,1.631-0.866c0.571,0,1.046,0.226,1.428,0.677C41.698,5.901,41.889,6.494,41.889,7.23z M40.796,7.27
				c0-0.471-0.107-0.858-0.319-1.164c-0.232-0.318-0.544-0.477-0.935-0.477c-0.265,0-0.506,0.088-0.721,0.263
				c-0.216,0.176-0.357,0.406-0.423,0.691c-0.034,0.132-0.05,0.242-0.05,0.328v0.806c0,0.352,0.107,0.648,0.323,0.89
				c0.215,0.242,0.495,0.363,0.84,0.363c0.405,0,0.72-0.156,0.945-0.467C40.682,8.192,40.796,7.78,40.796,7.27z"/>
			<path style="fill:#FFFFFF;" d="M49.448,7.826c0,0.57-0.199,1.034-0.596,1.392c-0.437,0.392-1.045,0.586-1.826,0.586
				c-0.722,0-1.3-0.139-1.737-0.418l0.248-0.895c0.471,0.285,0.988,0.427,1.553,0.427c0.405,0,0.72-0.091,0.945-0.274
				c0.226-0.182,0.339-0.427,0.339-0.732c0-0.272-0.093-0.501-0.278-0.687c-0.186-0.186-0.494-0.358-0.925-0.518
				C45.997,6.27,45.41,5.629,45.41,4.785c0-0.551,0.205-1.003,0.617-1.355c0.411-0.352,0.958-0.528,1.641-0.528
				c0.61,0,1.117,0.106,1.522,0.318l-0.268,0.875c-0.378-0.205-0.806-0.308-1.283-0.308c-0.378,0-0.673,0.093-0.886,0.279
				c-0.178,0.166-0.268,0.368-0.268,0.606c0,0.265,0.103,0.484,0.308,0.657c0.179,0.159,0.504,0.332,0.975,0.517
				c0.577,0.232,1.001,0.504,1.273,0.816C49.312,6.975,49.448,7.363,49.448,7.826z"/>
			<path style="fill:#FFFFFF;" d="M52.998,5.678h-1.184v2.347c0,0.597,0.209,0.895,0.627,0.895c0.193,0,0.351-0.017,0.478-0.05
				l0.03,0.816c-0.213,0.079-0.491,0.119-0.836,0.119c-0.425,0-0.756-0.129-0.995-0.388C50.88,9.16,50.76,8.725,50.76,8.115V5.678
				h-0.706V4.873h0.706V3.988l1.054-0.318v1.203h1.184L52.998,5.678L52.998,5.678z"/>
			<path style="fill:#FFFFFF;" d="M58.338,7.25c0,0.743-0.213,1.352-0.637,1.83c-0.444,0.491-1.034,0.736-1.77,0.736
				c-0.71,0-1.275-0.235-1.696-0.706c-0.421-0.471-0.632-1.064-0.632-1.781c0-0.749,0.217-1.363,0.652-1.84
				c0.434-0.477,1.019-0.716,1.755-0.716c0.71,0,1.28,0.235,1.711,0.706C58.133,5.937,58.338,6.527,58.338,7.25z M57.224,7.284
				c0-0.446-0.096-0.828-0.288-1.147c-0.226-0.386-0.547-0.578-0.964-0.578c-0.431,0-0.759,0.193-0.985,0.578
				c-0.193,0.319-0.288,0.708-0.288,1.167c0,0.446,0.096,0.828,0.288,1.147c0.232,0.386,0.557,0.578,0.975,0.578
				c0.411,0,0.732-0.196,0.964-0.589C57.125,8.116,57.224,7.73,57.224,7.284z"/>
			<path style="fill:#FFFFFF;" d="M61.829,5.818c-0.106-0.02-0.219-0.03-0.338-0.03c-0.378,0-0.67,0.142-0.875,0.427
				c-0.178,0.252-0.268,0.571-0.268,0.955v2.536h-1.074l0.01-3.312c0-0.557-0.013-1.064-0.04-1.522h0.935l0.04,0.925h0.03
				c0.113-0.318,0.292-0.573,0.537-0.765c0.239-0.173,0.498-0.259,0.776-0.259c0.1,0,0.189,0.007,0.268,0.02L61.829,5.818z"/>
			<path style="fill:#FFFFFF;" d="M66.632,7.061c0,0.192-0.013,0.355-0.039,0.487h-3.222c0.013,0.477,0.169,0.842,0.467,1.094
				c0.272,0.226,0.624,0.338,1.054,0.338c0.478,0,0.912-0.076,1.303-0.229l0.169,0.746c-0.458,0.199-0.998,0.298-1.621,0.298
				c-0.749,0-1.338-0.221-1.765-0.662c-0.428-0.441-0.642-1.033-0.642-1.775c0-0.729,0.199-1.336,0.597-1.82
				c0.418-0.517,0.981-0.776,1.691-0.776c0.696,0,1.223,0.259,1.581,0.776C66.49,5.95,66.632,6.457,66.632,7.061z M65.608,6.782
				c0.007-0.318-0.063-0.593-0.209-0.825c-0.186-0.298-0.471-0.447-0.855-0.447c-0.351,0-0.637,0.146-0.855,0.438
				C63.51,6.18,63.404,6.458,63.37,6.783L65.608,6.782L65.608,6.782z"/>
		</g>
		<g>
			<g>
				<path style="fill:#FFFFFF;" d="M32.388,13.67h-3.546v6.207h-0.827V13.67h-2.925v-0.772h7.298V13.67z M32.229,17.084
					l-0.602,0.602c-0.859-0.815-1.746-1.589-2.662-2.323l0.574-0.545C30.467,15.544,31.363,16.3,32.229,17.084z"/>
				<path style="fill:#FFFFFF;" d="M37.57,16.237h-2.398c-0.163,0.288-0.298,0.518-0.405,0.687h0.687v-0.499h0.743v0.499h1.194
					v0.658h-1.194v0.536l1.279-0.113l-0.132,0.658l-1.147,0.104v1.072h-0.743v-1.016l-1.994,0.207l-0.084-0.734
					c0.765-0.037,1.458-0.078,2.078-0.122v-0.593H34.89c-0.458,0-0.815,0.041-1.072,0.123l-0.207-0.687
					c0.207-0.025,0.351-0.098,0.433-0.221c0.082-0.123,0.194-0.309,0.339-0.56h-0.875v-0.658h1.213
					c0.075-0.157,0.141-0.32,0.198-0.489l0.705,0.206l-0.132,0.283h2.078L37.57,16.237L37.57,16.237z M40.909,18.184
					c-0.101,0.74-0.207,1.2-0.32,1.383c-0.113,0.181-0.284,0.273-0.512,0.273c-0.229,0-0.473-0.116-0.734-0.348
					c-0.26-0.231-0.484-0.495-0.673-0.79c-0.382,0.382-0.874,0.781-1.476,1.195l-0.574-0.564c0.683-0.42,1.247-0.871,1.693-1.354
					c-0.156-0.464-0.27-1.036-0.339-1.717c-0.069-0.68-0.104-1.086-0.104-1.218h-4.429v-0.667h1.9v-0.536h-1.439v-0.668h1.439V12.41
					h0.752v0.761h1.354v0.668h-1.354v0.536h1.749L37.805,12.4h0.743c0,0.796,0.012,1.454,0.037,1.975h2.191v0.667h-2.163v0.095
					c0,0.125,0.022,0.434,0.066,0.926s0.104,0.898,0.178,1.218c0.32-0.476,0.586-1.047,0.799-1.712l0.687,0.264
					c-0.332,0.946-0.718,1.705-1.156,2.275c0.1,0.195,0.243,0.388,0.427,0.579c0.185,0.192,0.305,0.287,0.362,0.287
					c0.056,0,0.105-0.089,0.146-0.268c0.04-0.179,0.07-0.415,0.089-0.71L40.909,18.184z M40.608,13.763l-0.593,0.471
					c-0.339-0.414-0.699-0.802-1.081-1.167l0.555-0.461C39.934,13.04,40.307,13.425,40.608,13.763z"/>
			</g>
		</g>
	</g>
	<g>
	</g>
</g>
<g id="&#x5716;&#x5C64;_3">
</g>
</svg>
