<?xml version="1.0" encoding="iso-8859-1"?>
<!-- Generator: Adobe Illustrator 19.0.1, SVG Export Plug-In . SVG Version: 6.00 Build 0)  -->
<svg version="1.1" xmlns="http://www.w3.org/2000/svg" xmlns:xlink="http://www.w3.org/1999/xlink" x="0px" y="0px"
	 viewBox="0 0 27.463 34.427" style="enable-background:new 0 0 27.463 34.427;" xml:space="preserve">
<g id="&#x5716;&#x5C64;_2">
</g>
<g id="&#x5716;&#x5C64;_1">
	<g>
		<g>
			<defs>
				<polygon id="SVGID_1226_" points="19.845,371.482 -36.619,379.083 -45.667,361.709 -35.895,293.664 40.837,255.66 
					87.528,273.395 101.213,407.314 64.726,379.445 				"/>
			</defs>
			<clipPath id="SVGID_1_">
				<use xlink:href="#SVGID_1226_"  style="overflow:visible;"/>
			</clipPath>
			<g id="jMJPGZ_1_" style="clip-path:url(#SVGID_1_);">
				<g>
					<path style="fill:#FFFFFF;" d="M103.223-13.134c0,395.1-0.001,790.2,0.034,1185.3c0,1.374-0.309,1.684-1.683,1.684
						c-72.314-0.039-144.628-0.039-216.942,0c-1.374,0.001-1.685-0.309-1.684-1.683c0.043-40.738,0.035-81.475,0.035-122.213
						c0.647-0.602,1.456-0.548,2.248-0.545c14.762,0.051,29.524,0.024,44.286,0.011c50.901,0.025,101.801,0.013,152.701,0.011
						c3.516,0.015,7.034,0.006,10.549,0.003c2.585,0.016,5.173-0.015,7.76,0.019c1.07,0.014,1.761-0.293,1.791-1.476
						c-0.048-2.508-0.054-5.014-0.021-7.52c0.123-1.845-0.007-3.691,0.005-5.536c0.052-3.107-0.092-6.215,0.02-9.321
						c0.008-1.001-0.042-2.003,0.019-3.004c-0.002-0.329-0.001-0.658-0.008-0.987c-0.038-1.847-0.046-3.694,0.003-5.54
						c0.003-0.421-0.033-0.843,0.004-1.263c-0.014-0.912,0-1.825,0.018-2.737c-0.024-0.388,0.012-0.775,0.016-1.162
						c-0.006-0.373,0.014-0.746,0.014-1.119c-0.009-0.184-0.006-0.368-0.001-0.551c-0.001-0.367,0.004-0.734-0.001-1.102
						c-0.009-0.281-0.01-0.561-0.01-0.842c-0.01-0.579-0.012-1.158-0.016-1.737c-0.009-0.304-0.01-0.608-0.016-0.913
						c-0.062-1.165,0.014-2.329-0.032-3.493c-0.021-1.103-0.018-2.204,0.012-3.306c-0.055-2.251-0.062-4.501,0-6.751
						c-0.011-1.305-0.025-2.61-0.007-3.915c0.029-0.419,0.035-0.839,0.035-1.259c-0.001-0.307,0.002-0.615,0.002-0.923
						c-0.01-1.014-0.012-2.028-0.002-3.043c-0.006-0.206-0.004-0.412-0.004-0.618c-0.043-0.523,0.017-1.046-0.01-1.569
						c-0.044-1.505-0.045-3.01,0.002-4.515c0.027-1.285-0.006-2.57-0.003-3.855c0.007-0.317,0.01-0.634,0.014-0.95
						c-0.002-0.524-0.037-1.047-0.012-1.572c0.028-0.945-0.052-1.89,0.004-2.835c0.028-0.742-0.016-1.483-0.02-2.224
						c0.061-2.002,0.374-4.105-0.07-5.985c-0.723-3.061-0.831-5.979,0.073-8.961c-0.037-0.858,0.022-1.715,0.006-2.574
						c-0.054-0.438,0.014-0.874,0.002-1.312c-0.058-1.785-0.05-3.569-0.011-5.353c-0.05-1.921-0.057-3.842,0.002-5.762
						c-0.034-1.231-0.047-2.462,0.003-3.692c-0.059-0.998,0.009-1.996-0.012-2.994c-0.024-1.65-0.027-3.299,0.019-4.949
						c-0.002-0.536-0.039-1.074,0.004-1.61c-0.033-0.946,0.013-1.892,0.007-2.839c-0.006-0.421,0.011-0.842,0.002-1.264
						c-0.053-0.534-0.002-1.068-0.011-1.603c-0.067-1.855-0.027-3.711-0.033-5.566c0.071-0.964-0.038-1.931,0.038-2.895
						c0.002-0.528-0.034-1.057,0.006-1.585c-0.002-0.421,0-0.842-0.006-1.263c-0.041-1.268-0.015-2.536-0.025-3.804
						c0.052-0.632,0.03-1.266,0.034-1.899c0.002-0.64,0.003-1.279-0.002-1.919c0-0.659-0.003-1.317-0.008-1.976
						c-0.027-2.857-0.12-5.713-0.023-8.569c-0.052-2.065-0.061-4.13,0.003-6.195c-0.042-2.477-0.057-4.954,0.009-7.43
						c0-0.217,0.004-0.435,0.005-0.651c-0.019-0.95-0.016-1.901,0.012-2.851c0.002-0.506-0.028-1.014,0.006-1.52
						c-0.002-0.679,0.001-1.358,0.015-2.036c-0.001-0.277,0.005-0.555,0.015-0.831c0.006-0.353,0.019-0.707,0.028-1.061
						c-0.003-0.256,0.006-0.513,0.012-0.77c-0.007-0.169-0.002-0.338,0.003-0.507c-0.003-0.253,0-0.507-0.001-0.761
						c-0.012-0.172-0.011-0.343-0.011-0.515c-0.005-0.352-0.012-0.703-0.02-1.055c-0.017-0.37-0.017-0.738-0.021-1.108
						c-0.012-0.681-0.021-1.361-0.019-2.043c-0.008-0.204-0.008-0.406-0.01-0.61c-0.05-1.147,0.024-2.294-0.022-3.44
						c-0.047-0.748,0.051-1.495-0.006-2.243c-0.004-1.726-0.03-3.452,0.029-5.177c-0.005-0.318-0.001-0.636,0.003-0.953
						c-0.025-0.525-0.003-1.049,0.002-1.574c-0.057-0.638,0.034-1.277-0.034-1.915c-0.014-1.109-0.018-2.218,0.008-3.328
						c-0.085-3.99-0.075-7.979-0.011-11.969c-0.086-11.575-0.088-23.15,0.005-34.725c-0.086-7.903-0.093-15.807-0.002-23.709
						c-0.037-1.964-0.065-3.928,0.011-5.893c0.026-0.799,0.024-1.599,0.002-2.399c-0.074-2.07-0.056-4.14-0.011-6.21
						c-0.079-6.315-0.063-12.63-0.013-18.944c0.029-0.331,0.036-0.665,0.042-0.997c-0.001-0.319,0.002-0.639,0.006-0.958
						c0.009-1.026-0.033-2.053,0.002-3.079c-0.003-0.404-0.025-0.808,0.004-1.212c0.004-0.401-0.005-0.802,0-1.203
						c-0.003-0.7,0.016-1.4-0.016-2.1c-0.007-0.697,0.014-1.393,0.019-2.089c-0.017-0.396-0.01-0.793-0.006-1.189
						c0.005-0.297,0.007-0.595,0.008-0.892c-0.024-0.599,0.013-1.198-0.023-1.796c-0.006-0.808-0.003-1.617,0.014-2.425
						c0.005-0.609,0.01-1.217-0.003-1.826c0.015-0.513-0.003-1.026,0.006-1.539c-0.006-0.317-0.006-0.634-0.009-0.952
						c-0.08-0.988,0.046-1.979-0.062-2.967c-0.021-7.797-0.03-15.593-0.008-23.388c0.082-0.925,0.043-1.852,0.024-2.779
						c-0.013-2.527-0.051-5.054,0.025-7.581c-0.009-1.038-0.068-2.076-0.005-3.114c-0.072-5.155-0.086-10.31,0.001-15.465
						c-0.022-0.58,0.001-1.161,0.002-1.741c-0.065-2.884-0.066-5.768-0.004-8.652c-0.052-1.503-0.05-3.005-0.001-4.508
						c-0.111-2.944,0.002-5.888-0.044-8.832c-0.051-1.282-0.018-2.564-0.018-3.846c-0.002-135.784-0.002-271.569-0.004-407.353
						c0-1.16,0.01-2.319,0.05-3.478c-0.057-8.33-0.089-16.659,0.012-24.989c-0.133-62.476-0.024-124.952-0.058-187.429
						c0-0.61-0.033-1.222,0.056-1.828c-0.101-3.282,0.075-6.568-0.104-9.847c-0.052-0.203-0.132-0.394-0.261-0.562
						c-0.682-0.403-1.43-0.247-2.147-0.248C92.204-7.859,84.607-7.85,77.01-7.86c-0.844-0.001-1.707,0.116-2.517-0.249
						c-0.22-0.118-0.323-0.303-0.308-0.552c0.675-0.799,1.616-0.492,2.458-0.592c8.334,0.056,16.67-0.149,25.011-0.223
						c-2.72-0.232-5.444-0.208-8.167-0.222c-0.79-0.004-1.591,0.045-2.339-0.288c-0.336-0.149-0.719-0.357-0.705-0.749
						c0.015-0.433,0.46-0.53,0.813-0.597c0.964-0.183,1.943-0.099,2.917-0.11c2.191-0.025,4.382-0.025,6.673,0.189
						c-0.694-0.195-1.633,0.281-1.639-0.909c0.908-1.28,2.448-0.49,3.567-1.087C102.942-13.297,103.094-13.258,103.223-13.134z"/>
					<path style="fill:#66B9B9;" d="M22.247-7.96c8.303-0.017,16.606-0.049,24.909-0.047c18.561,0.004,37.122,0.026,55.684,0.041
						c0.008,0.113-0.007,0.223-0.042,0.331c-0.873,0.787-1.957,0.576-2.972,0.581C91.155-7.013,82.486-7.056,73.82-7.106
						c-4.379,0.033-8.782,0.266-13.139-0.069c-3.891-0.299-7.768-0.14-10.776-0.277c1.859,0.014,4.592-0.061,7.321,0.022
						c1.951,0.059,3.838,0.464,5.339,1.878c0.463,0.437,1.047,0.63,1.64,0.752c2.386,0.492,3.993,2.401,6.13,3.349
						c0.404,0.179,0.604,0.663,0.509,1.097c-0.314,1.44,0.367,2.007,1.697,2.156c0.448,0.05,1.011,0.131,0.998,0.82
						c-1.099,0-2.198,0-3.298,0c-2.17-0.307-4.318,0.348-6.491,0.134c-1.081-0.107-2.164,0.087-2.702-1.305
						c-0.32-0.828-1.474-0.401-2.116-0.852c-2.485-1.743-5.632-2.109-8.111-3.634c-2.48-1.525-5.229-1.481-7.79-2.314
						c-1.478-0.481-2.989-0.918-4.039-1.512c0.298,0.017,0.812,0.357,1.265,0.877c0.559,0.643,0.988,1.346,0.481,2.135
						c-0.553,0.861-1.285,0.292-1.943,0.042c-0.246-1.241-0.714-2.242-2.263-2.052c-0.603-0.178-0.971-0.84-1.821-0.857
						c0.481,0.477,1.162,0.569,1.27,1.217c-0.397,1.365-1.541,2.137-2.476,3.064c-0.607,0.601-1.23,0.417-1.714-0.219
						c-0.668-0.878-1.405-1.683-2.308-2.323c-0.348-0.427-0.758-0.771-1.305-0.921c-0.147-0.056-0.288-0.124-0.427-0.197
						c-0.935-0.549-1.881,0.165-2.82-0.022C23.786-6.367,22.497-6.41,22.247-7.96z"/>
					<path style="fill:#76BDA9;" d="M22.247-7.96c0.776,0.876,1.71,1.428,2.915,1.425c0.212,0.207,0.249,0.458,0.184,0.735
						c-0.095,0.251-0.248,0.464-0.431,0.658c-0.726,0.786-1.65,0.943-2.588,0.822c0.972,1.577,1.947,3.295,4.32,2.123
						c0.535-0.042,1.067-0.139,1.608-0.101C29-1.916,29.177-1.5,28.294-1.081c-0.38,0.181-0.818,0.196-1.216,0.33
						c-0.716,0.252-1.575,0.048-2.314,0.774c0.873,0.826,1.927,0.937,2.986,1.048c0.59,0.062,1.308-0.01,1.555,0.683
						c0.253,0.711-0.186,1.295-0.663,1.77c-0.686,0.684-1.365,1.37-1.932,2.156c-0.378,0.748-0.038,0.792,0.61,0.692
						c0.779-0.119,1.411-1.047,2.322-0.425c0.036,0.811-0.535,1.148-1.133,1.468c-0.828,0.317-1.669,0.541-2.564,0.32
						c-1.422-1.079-1.533-1.853-0.405-3.094c0.491-0.541,1.055-1.016,1.438-1.64c0.005-0.602-0.504-0.639-0.88-0.726
						c-2.273-0.526-4.074-2.06-6.209-2.877c-0.463-0.177-0.875-0.458-0.705-1.082c0.339-0.411,0.785-0.199,1.194-0.21
						c0.402-0.079,0.923,0.308,1.168-0.317c-0.36-0.837-1.264-1.333-1.402-2.293c0.335-1.629,2.002-0.574,2.794-1.365
						c-0.504-0.721-1.315-0.757-2.015-1.03c-0.514-0.2-1.341-0.161-1.12-1.122C20.618-7.999,21.433-7.979,22.247-7.96z"/>
					<path style="fill:#7BBC92;" d="M26.988-1.144c0.335-0.347,0.796-0.169,1.175-0.287c0.922-0.287,0.152-0.486-0.069-0.706
						c-0.623,0.199-0.925-0.238-1.253-0.628c-0.26-0.548-0.524-1.094-0.826-1.625c-0.074-0.179-0.117-0.363-0.139-0.555
						c0.056-1.653,0.923-1.832,2.222-1.223l0.002,0c0.471,0.28,1.065,0.321,1.458,0.753c0.861,0.563,1.759,1.15,2.222,2.067
						c0.738,1.462,1.351,0.892,2.077,0.047c0.627-0.729,1.293-1.424,1.942-2.134c0.191-0.296,0.435-0.541,0.725-0.74
						c2.682,0.004,2.729,0.051,2.212,2.202c-0.111,0.214-0.212,0.433-0.333,0.641c-0.48,0.822-1.386,1.664-1.343,2.456
						c0.054,0.977,1.504,0.57,2.211,1.06c0.443,0.307,0.86,0.651,1.288,0.978c0.096,0.096,0.13,0.193,0.102,0.292
						c-0.029,0.1-0.058,0.15-0.088,0.15c-1.592,0.034-2.896-0.95-4.402-1.262c-0.764-0.158-0.618-0.898-0.313-1.496
						c0.493-0.966,1.152-1.839,1.612-2.821c0.161-0.345,0.47-0.86-0.368-0.767c-0.438,0.183-0.825,0.439-1.18,0.748
						c-1.051,0.936-1.569,2.438-3.068,2.898C31.791-0.913,31.39-1.696,30.907-2.4c-0.813-1.186-1.75-2.226-3.417-2.671
						c0.215,1.116,0.948,1.605,1.431,2.258c0.452,0.611,1.117,1.184,0.562,2.079C28.535-0.167,27.633,0.115,26.988-1.144z"/>
					<path style="fill:#79C0C1;" d="M-31.635,225.428c-1.157-0.026-2.242-0.721-3.493,0.164c-0.894,0.632-1.45-0.545-1.946-1.176
						c-0.341-0.435-1.208-0.756-0.381-1.617c1.076-1.12-0.059-1.363-0.799-1.359c-1.328,0.008-1.949-0.458-1.815-1.824
						c0.057-0.58,0.017-1.126-0.843-1.025c-0.156,0.018-0.506-0.277-0.499-0.412c0.127-2.37-2.407-4.071-1.612-6.635
						c0.277-0.894,0.051-1.734-1.072-2.162c-0.781-0.298-0.737-1.164-0.735-1.917c0.011-4.208-0.016-8.417,0.025-12.625
						c0.007-0.724-0.454-1.891,0.519-2.067c0.882-0.159,0.241,1.269,0.987,1.774c0.462-0.577,0.456-1.277,0.26-1.742
						c-1.135-2.695-0.278-4.945,1.32-7.121c0.248-0.338,0.182-0.938,0.184-1.418c0.015-2.805-0.004-5.611,0.016-8.416
						c0.005-0.683-0.225-1.552,0.998-1.515c0.493,0.015,0.445-0.489,0.453-0.843c0.014-0.61,0.015-1.22,0.005-1.83
						c-0.021-1.264,0.577-2.811-1.74-2.782c-1.308,0.017-1.542-1.123-2.066-2.242c-0.667-1.424-0.347-3.491-2.342-4.298
						c-0.789-0.319-0.521-1.292-0.277-1.969c0.181-0.501,0.675-0.916,0.546-1.502c-0.146-0.662,0.749-2.001-1.26-1.53
						c-0.727,0.17-2.832-0.3-2.408-2.366c0.088-0.427-0.061-0.98-0.599-0.943c-1.508,0.103-1.711-0.749-1.586-1.938
						c0.085-0.802-0.347-1.102-1.096-1.058c-0.923-0.89-2.243-0.587-3.294-1.095c0.32-0.572,1.025-1.247-0.154-1.595
						c-1.233-0.365-1.326-0.877-0.52-1.808c0.23-0.266-0.164-0.493-0.43-0.629c-0.212-0.26-0.237-0.582,0.065-0.706
						c0.493-0.201,0.847,0.16,1.177,0.478c0.905,1.673,0.988,1.682,2.754,0.296c1.06-0.223,2.361-0.008,2.631-1.592
						c0.115-0.674-0.387-0.027-0.451-0.258c-0.782-1.48-1.841-1.646-3.143-0.668c-0.274-0.05-0.468-0.21-0.61-0.442
						c-0.093-0.26-0.074-0.504,0.1-0.726c0.604-1.526-1.198-1.517-1.518-2.455c0.28,0.963,2.06,0.916,1.567,2.401
						c-0.674,0.478-1.018-0.14-1.459-0.435c-0.29-0.352-0.747-0.426-1.111-0.658c-0.621-0.914-1.684-1.772-0.366-2.928
						c1.123-0.596,2.418-0.342,3.582-0.733c0.059-0.163,0.641-0.17,0.288-0.332c-0.907-0.414-1.759-0.792-1.22-1.967
						c0.256-0.557-0.096-0.383-0.317-0.449c-0.583-0.174-1.154-0.396-1.674-0.7c-0.522-0.306-0.417-0.669,0.071-0.953
						c1.241-0.48,1.024-1.586,1.1-2.565c0.654-0.645,1.295-1.308,2.208-1.595c0.286,0.023,0.456,0.177,0.518,0.455
						c0.303,0.161-0.666,0.504,0.068,0.57c1.015,0.091,1.733-0.286,1.875-1.397c0.297-2.258,0.156-2.46-2.075-2.956
						c-0.756-0.371-1.519-0.439-2.296-0.055c-0.174-0.009-0.326-0.069-0.458-0.183c-0.325-0.441-0.595-0.93-0.664-1.463
						c-0.092-0.714-0.164-1.629,0.649-1.87c1.003-0.297,0.583,0.945,1.108,1.348c0.26-1.066,0.012-2.17,0.458-3.17
						c0.242-0.544,0.053-0.933-0.543-1.086c-0.158-0.015-0.313-0.042-0.468-0.068c-0.373-0.1-0.801-0.004-1.117-0.309
						c0.119-0.469,0.261-0.934,0.352-1.409c0.09-0.472-0.524-1.207,0.339-1.371c1.155-0.22,0.004,0.699,0.371,0.889
						c0.151,0.079,0.351,0.102,0.526,0.092c1.018-0.059,2.539-1.579,2.427-2.574c-0.181-1.612,0.737-2.897,1.111-4.34
						c0.121-0.467,0.381-0.94,0.349-1.395c-0.084-1.182,0.334-1.708,1.558-1.585c0.331,0.033,0.987-0.173,0.986-0.259
						c-0.033-1.697,1.963-2.703,1.79-4.144c-0.334-2.771,1.408-3.613,3.343-4.322c0.877-0.321,1.304-0.756,1.121-1.552
						c-0.428-1.858,0.809-3.139,1.829-4.113c0.958-0.914,1.148-1.744,1.123-2.84c-0.015-0.665,0.172-1.228,0.759-1.556
						c0.69-0.386,0.773,0.376,1.076,0.666c0.649,0.623,0.869,0.079,0.98-0.383c0.497-2.06,1.922-3.712,2.589-5.603
						c0.532-1.511,1.969-2.566,1.938-4.27c-0.007-0.381,0.131-0.673,0.438-0.948c2.266-2.024,1.038-6.96-2.503-7.306
						c-0.308-0.03-0.582-0.078-0.812-0.334c-2.181-2.43-5.27-3.621-7.74-5.656c-1.132-0.933-2.573-0.398-3.764-0.707
						c-0.135-0.503,0.14-0.539,0.363-0.603c0.372-0.106,1.005,0.141,1.004-0.48c-0.001-0.509-0.489-0.94-0.977-0.936
						c-1.321,0.011-2.02-0.619-2.35-1.843c-0.07-0.261-0.35-0.536-0.605-0.667c-2.106-1.084-3.746-2.472-3.654-5.129
						c0.006-0.175-0.247-0.449-0.439-0.526c-1.869-0.749-2.775-2.712-4.53-3.581c-1.109-0.55-0.884-1.549-0.795-2.403
						c0.177-1.708-0.295-2.977-1.923-3.72c-0.32-0.146-0.842-0.461-0.822-0.649c0.213-1.934-1.065-3.274-1.785-4.839
						c-0.135-0.293-0.271-0.498-0.513-0.681c-0.705-0.534-1.012-0.983-0.355-1.944c0.541-0.792,0.623-1.976-1.017-1.946
						c-0.801,0.015-1.013-0.483-1.364-1.154c-1.002-1.914-1.14-3.905-1.062-5.977c0.013-0.347-0.07-0.764-0.263-1.041
						c-2.368-3.405-1.781-7.318-1.834-11.085c-0.019-1.349,1.509-2.244,1.615-3.76c0.176-2.516,2.359-4.47,2.143-7.145
						c-0.066-0.819,0.617-0.553,1.04-0.611c1.42-0.195,2.909,0.395,4.281-0.372c2.198,0,4.396,0,6.595,0
						c0.155-0.169,0.3-0.161,0.436,0.021c-0.035,0.559-0.484,0.742-0.889,0.719c-1.097-0.061-1.359,0.891-1.988,1.35
						c-2.41,1.759-1.342,4.956-3.267,6.852c-0.603,0.594-0.786,1.759-0.77,2.763c0.024,1.584-0.06,3.157-0.317,4.728
						c-0.159,0.971-0.076,1.922,0.632,2.751c1.057,1.239-0.197,2.637,0.177,3.974c0.115,0.413-0.027,0.935,0.291,1.348
						c0.125,0.238,0.184,0.491,0.184,0.758c-0.958,1.406-0.237,2.902-0.215,4.358c0.01,0.704,0.503,0.698,1.039,0.58
						c1.012-0.222,1.704,0.487,2.489,0.904c0.327,0.174,0.609,0.486,0.49,0.887c-0.162,0.547-0.621,0.47-1.052,0.375
						c-0.747-0.074-1.557,0.001-2.026,0.538c-0.57,0.653-1.202,1.551,0.187,2.136c0.407,0.062,0.818,0.056,1.225,0.105
						c0.446-0.003,1.012,0.684,1.292-0.236c0.302-0.522,0.229-1.534,1.24-1.19c0.998,0.339,0.896,1.174,0.616,1.982
						c-0.178,0.513-0.56,1.003-0.402,1.562c0.189,0.667,0.529,1.453,1.322,0.578c0.751-0.829,0.973-0.291,1.241,0.319
						c0.268,0.611,0.606,1.196,0.7,1.875c0.059,0.423,0.099,0.956,0.485,1.141c1.133,0.54,1.823,1.163,1.082,2.514
						c-0.173,0.316,0.152,0.688,0.408,0.958c1.49,1.571,2.781,3.299,4.744,4.436c1.651,0.956,2.692,2.697,4.287,3.874
						c1.991,1.469,4.317,1.887,6.429,2.911c1.885,0.914,4.057,1.351,5.025,3.549c0.158,0.36,0.5,0.539,0.888,0.548
						c1.336,0.03,2.677,0.162,3.998-0.182c1.004-0.261,1.576-0.871,1.62-1.931c0.306-1.423,1.347-1.663,2.517-1.392
						c1.631,0.378,1.261,1.801,1.315,2.975c0.28-2.032,0.348-2.132,2.297-1.902c0.826,0.098,1.351-0.454,2.184-0.657
						c-0.713-0.633-1-1.366-0.843-2.237c0.087-0.483,0.393-0.791,0.86-0.799c0.661-0.01,0.586,0.463,0.469,0.901
						c-0.217,0.813,0.369,1.215,0.904,1.735c-0.486-0.558-1.342-1.056-0.648-1.754c0.542-0.545,0.852,0.38,1.288,0.609
						c1.12,0.897,2.156,1.879,2.977,3.063c0.255,0.367,0.507,0.662,1.002,0.576c0.252-0.037,0.504-0.065,0.756-0.092
						c1.699-0.08,3.059-1.472,4.835-1.247c2.289,1.849,4.089,4.137,5.803,6.499c0.265,0.605,0.716,0.352,1.137,0.242
						c1.029,0.567,1.115,1.592,1.261,2.59c-0.322,1.669-1.453,2.456-3.02,2.763c-1.736,0.34-3.484,0.591-5.247,0.746
						c-3.558,0.313-6.876,1.459-10.407,2.983c1.807,1.473,3.647,2.5,5.342,3.724c0.708,0.512,1.716,0.799,1.639,1.974
						c-0.646,1.041-1.405,1.339-2.736,1.068c-2.641-0.537-5.312,0.327-7.986,0.26c-0.297-0.008-0.604,0.169-0.81,0.39
						c-1.321,1.411-2.749,2.587-4.842,2.541c-0.3-0.007-0.521,0.268-0.691,0.542c-1.752,2.82-4.612,4.627-6.621,7.224
						c-0.542,0.701-1.467,1.076-2.42,1.167c-0.492,0.047-1.164,0.09-1.309,0.516c-0.585,1.706-2.184,2.946-2.463,4.671
						c-0.335,2.069-1.409,3.862-2.742,4.984c-2.487,2.093-4.094,4.47-4.581,7.603c-0.308,1.983-1.473,3.55-2.258,5.301
						c-0.429,0.955-0.75,1.918-0.774,2.982c-0.016,0.732-0.131,1.338-1.039,1.697c-0.946,0.373-1.033,2.673-0.014,3.502
						c1.267,1.031,1.534,2.005,0.829,3.45c-0.275,0.564-0.216,1.319,0.158,1.941c0.105,0.154,0.18,0.32,0.234,0.497
						c0.128,0.687-0.031,1.27-0.615,1.698c-0.123,0.319-0.639-0.391-0.507,0.102c0.244,0.911-0.095,1.676-0.305,2.488
						c-0.266,1.029-0.477,2.044,0.572,2.806c0.103,0.153,0.177,0.318,0.232,0.493c0.179,2.004,0.588,3.984,0.733,5.981
						c0.111,1.53,1.079,2.703,1.325,4.144c0.067,0.393,0.398,0.649,0.788,0.655c1.585,0.025,1.982,0.996,2.16,2.372
						c0.133,1.033,0.902,1.856,1.54,2.66c0.658,0.83,1.246,1.648,1.297,2.75c0.036,0.782,0.625,1.129,1.209,1.483
						c1.732,1.049,3.186,2.252,2.867,4.611c-0.091,0.675,0.345,1.277,0.703,1.85c1.256,2.008,0.84,4.542,2.06,6.567
						c0.113,0.187,0.104,0.534-0.026,0.713c-1.512,2.088-1.292,4.708-1.191,6.873c0.116,2.492-1.582,3.868-2.135,5.861
						c-0.466,1.677-0.445,3.65-1.844,5.061c-0.351,0.354,0.257,0.73,0.449,1.085c-0.083,2.292-0.926,4.366-1.847,6.418
						c-0.364,0.81-0.248,1.674-0.264,2.522c-0.013,0.669,0.088,1.354-0.018,2.007c-0.624,3.838,1.165,7.238,1.937,10.819
						c0.222,1.026,2.173,1.819,3.219,1.422c0.53-0.201,1.027-0.402,1.548-0.02c0.13,0.119,0.224,0.262,0.279,0.43
						c-0.23,0.79-1.227,1.02-1.373,1.875c-0.351,0.44-0.766,0.815-1.214,1.152c-0.674,0.651,0.135,1.437-0.191,2.116
						c-0.056,0.162-0.143,0.306-0.257,0.434c-0.378,0.344-1.119,0.414-1.051,1.094c0.073,0.733,0.819,0.763,1.333,1.03
						C-33.314,224.153-31.957,224.025-31.635,225.428z"/>
					<path style="fill:#E8EAE9;" d="M-11.485,2.626c0.843-0.47,1.322-1.195,1.501-2.132c0.053-0.029,0.122-0.045,0.156-0.088
						c2.179-2.783,4.935-2.483,7.834-1.489C-1.78-1.01-1.515-1.089-1.275-1.097c0.564-0.076,1.117-0.015,1.664,0.128
						c2.349,0.7,4.849,0.848,7.093,1.933c0.409,0.739-0.22,0.822-0.647,0.916C5.999,2.065,5.125,2.075,4.302,1.868
						C1.588,1.186-1.26,1.311-3.941,0.505c-1.744-0.524-3.132,0.058-4.316,1.211c-2.347,2.285-4.817,4.439-7.124,6.765
						c-0.448,0.452-0.82,1.376-1.721,0.575c-0.193-0.853,0.448-1.295,0.927-1.787c0.786-0.804,1.568-1.607,2.204-2.539
						C-13.258,3.894-12.323,3.317-11.485,2.626z"/>
					<path style="fill:#7EC1C3;" d="M27.734,2.975c-0.608,0.659-1.155,1.389-1.837,1.96c-1.048,0.878-1.054,1.647,0.011,2.465
						c0.239,0.217,0.566,0.17,0.84,0.279c0.495,0.197,1.293-0.56,1.513,0.404c0.157,0.687-0.137,1.292-0.741,1.715
						c-0.183,0.128-0.452,0.207-0.397,0.619c0.656,0.682,2.312,0.663,1.925,2.297c-0.235,0.996-1.031,0.819-1.737,0.837
						c-0.543-0.115-0.997-0.366-1.302-0.846c-0.294-1.486-2.088-2.04-2.257-3.611c-0.012-0.112-0.163-0.182-0.294-0.175
						c-2.964,0.148-4.163-2.614-6.308-3.82c-0.131-0.128-0.234-0.274-0.314-0.438C16.618,4.039,16.61,3.418,16.851,2.8
						c0.983-0.895,2.36-0.458,3.445-1.015c0.449,0.247,0.821,0.692,1.423,0.561c1.789,0.012,3.579-0.152,5.36,0.101
						C27.39,2.49,27.866,2.368,27.734,2.975z"/>
					<path style="fill:#85C5C9;" d="M27.351,13.258c0.443-0.229,1.272,0.167,1.302-0.709c0.023-0.669-0.124-1.213-1.059-1.266
						c-0.536-0.031-1.23-0.355-1.275-1.112c-0.05-0.852,0.698-0.575,1.127-0.797c0.286-0.148,0.506-0.724,0.489-1.097
						c-0.037-0.834-0.627-0.159-0.953-0.251C26.566,7.91,26.17,7.774,25.908,7.4c0.883,0.091,1.718-0.167,2.561-0.362
						c2.181,0.872,2.471,2.525,1.823,4.266c-0.159-0.595,0.293-1.383,0.377-2.218c0.05-0.496-0.146-1.275,0.623-1.237
						c0.506,0.025,0.512,0.739,0.556,1.213c0.061,0.66,0.047,1.325,0.06,1.992c-0.075,2.578,0.154,5.157-0.086,7.73
						c-0.158,0.605-0.285,1.222-0.618,1.767c-0.397,0.388-0.9,0.438-1.35,0.226c-1.526-0.721-3.214-1.117-4.551-2.226
						c-0.605-0.738-0.673-1.578-0.46-2.468c0.241-0.674,0.79-1.079,1.424-1.206C27.24,14.682,27.364,14.046,27.351,13.258z"/>
					<path style="fill:#7FAC32;" d="M32.85-1.34c1.259-0.735,1.731-2.245,2.963-3.007c0.772-0.117,0.93,0.4,1.022,0.987
						c-0.006,0.179-0.046,0.353-0.108,0.521c-1.965,1.613-3.493,3.626-5.084,5.585c-0.708,1.613-1.968,2.693-3.455,3.534
						c-1.086,0.615-1.717,0.359-1.929-0.725c0.615-0.914,1.348-1.716,2.203-2.416c0.377-0.308,0.717-0.773,0.552-1.264
						c-0.172-0.511-0.744-0.287-1.135-0.304c-1.248-0.055-2.408-0.374-3.454-1.051c-0.286-0.185-0.66-0.415-0.529-0.859
						c0.107-0.363,0.484-0.302,0.768-0.359c0.773-0.155,1.549-0.297,2.324-0.445c0.825,0.6,1.667,0.6,2.524,0.073
						c0.524-0.819,0.917-2.308,1.956-0.352C31.858-0.686,32.374-1.14,32.85-1.34z"/>
					<path style="fill:#70BCBA;" d="M27.734,2.975c-2.048-0.629-4.18,0.221-6.232-0.352c-0.385-0.237-0.674-0.618-1.132-0.744
						c-0.897,1.116-2.132,0.73-3.278,0.738c-1.406-1.459-0.839-3.194-0.683-4.873c1.299-1.862,1.979,0.015,2.895,0.481
						c0.007,0.65,0.539,0.692,0.978,0.867c2.444,0.976,4.592,2.625,7.231,3.161C27.959,2.346,28.15,2.585,27.734,2.975z"/>
					<path style="fill:#80AB52;" d="M31.779,4.077c-1.155,0.105-1.408,1.318-2.237,1.822c-0.809,0.338-1.59,0.798-2.432,0.985
						c-1.239,0.275-1.553-0.255-0.85-1.33c0.496,1.231,1.245,0.766,2.005,0.307c1.432-0.865,2.355-2.169,3.134-3.6
						c0.244-0.203,0.505-0.237,0.787-0.083c0.348,0.41,0.357,0.873,0.216,1.36C32.284,3.821,32.08,4.005,31.779,4.077z"/>
					<path style="fill:#3F3932;" d="M16.483-4.676c-0.092,0.744,0.058,1.458,0.266,2.166c-0.002,1.717-0.056,3.438,0.343,5.128
						c0.003,0.737,0.006,1.474,0.008,2.211c-1.572,0.076-2.271-0.813-2.485-2.243c0.255-2.019,0.094-4.053,0.21-6.077
						c0.054-0.623,0.514-1.043,0.779-1.561C15.999-5.167,16.272-4.994,16.483-4.676z"/>
					<path style="fill:#E5E0DE;" d="M-16.971,8.88c0.567,0.571,0.658-0.09,0.92-0.346c2.846-2.779,5.602-5.654,8.764-8.09
						c0.821-0.632,1.624-0.799,2.708-0.498c2.979,0.827,6.119,0.762,9.135,1.509C5.486,1.684,6.61,1.816,7.576,1.231
						c2.265-0.543,4.302,0.199,6.309,1.114c0.55,0.55,0.507,1.209,0.278,1.861c-1.987,5.65-3.967,11.302-6.216,16.853
						c-0.591,0.743-1.337,0.658-2.106,0.366c-0.871-0.33-1.066,0.108-1.008,0.861c0.216,2.39-0.335,4.795,0.204,7.179
						c0.12,0.531-0.128,1.066-0.627,1.409c-0.475,0.179-0.792-0.055-1.063-0.407c-0.641-2.278-0.409-4.626-0.246-6.907
						c0.172-2.417-0.387-4.036-2.877-4.636c-0.818-0.771-1.901-0.976-2.906-1.348c-1.543-0.848-3.279-1.25-4.829-2.083
						c-0.562-0.247-1.11-0.525-1.669-0.779c-1.881-1.021-3.887-1.754-5.867-2.551c-0.76-0.377-1.567-0.681-2.23-1.214
						C-18.233,10.179-18.13,9.607-16.971,8.88z"/>
					<path style="fill:#6EBCBB;" d="M13.821,2.657c-2.015-0.766-4.143-1.04-6.245-1.427C5.164,0.653,2.751,0.075,0.34-0.501
						C0.799-0.71,0.836-1.052,0.803-1.531C0.665-3.568,0.59-5.609,0.491-7.649c1.046,0.002,1.324,1.084,2.098,1.497
						C3.439-5.699,4.169-5.02,5.02-4.57c0.634,0.335,1.513,0.602,2.037-0.01c0.524-0.613-0.112-1.197-0.506-1.747
						C6.204-6.811,5.988-7.388,5.714-7.924c0.389,0,0.778,0,1.167,0.001c0.277,1.451,1.485,1.569,2.603,1.84
						c0.867,0.21,1.723,0.465,2.686,0.728c-0.387,1.242-2.107,1.103-2.29,2.469C9.788-2.199,8.564-1.572,9.358-0.859
						c0.706,0.635,1.597,0.059,2.282-0.505c1.589-0.142,2.301-1.683,3.614-2.265c-0.029,2.094,0.162,4.2-0.332,6.269
						C14.559,2.941,14.191,2.882,13.821,2.657z"/>
					<path style="fill:#D7D4D2;" d="M13.821,2.657c0.367-0.006,0.734-0.011,1.1-0.017c0.285,1.17,1.207,1.704,2.18,2.189
						c0.133-0.001,0.266-0.001,0.399-0.002c1.179,1.713,2.936,2.79,4.527,4.038c0.705,0.553,1.516,0.965,1.988,1.773
						c0.321,1.325,1.693,1.638,2.475,2.533c0.793,0.908,0.821,1.435-0.366,1.825c-0.653,0.214-1.163,0.629-1.648,1.089
						c-0.663,0.412-1.401,0.662-2.144,0.852c-1.401,0.359-2.313,1.128-2.494,2.623c-0.582,0.716-1.37,0.854-2.226,0.797
						c-0.832-0.204-0.124-1.643-1.276-1.588c-0.615,0.178-1.153,0.54-1.769,0.702c-1.181,0.193-2.194,0.575-2.288,2.011
						c-0.068,0.173-0.16,0.326-0.28,0.467c-0.629,0.555-1.334,0.621-2.093,0.33c-0.456-0.992-1.532-0.908-2.321-1.325
						C9.63,15.381,11.681,9.81,13.707,4.231C13.885,3.74,14.166,3.207,13.821,2.657z"/>
					<path style="fill:#85C5C9;" d="M23.707,10.681c-1.633-1.329-3.291-2.628-4.885-4.002c-0.569-0.491-1.32-0.926-1.322-1.853
						c1.168,0.956,2.334,1.915,3.505,2.868c0.738,0.6,1.421,1.407,2.506,0.571c0.259-0.2,0.819-0.055,0.766,0.144
						c-0.52,1.969,2.061,2.396,1.989,4.105C25.098,12.344,24.309,11.643,23.707,10.681z"/>
					<path style="fill:#B6D3D5;" d="M23.707,10.681c0.853,0.611,1.707,1.222,2.56,1.832c0.362,0.248,0.723,0.496,1.085,0.744
						c0.668,0.878,1.149,1.657-0.559,1.88c-0.565,0.074-1.092,0.438-1.637,0.67c-0.24,0.229-0.479,0.197-0.719-0.001
						c0.18-0.416,0.531-0.625,0.92-0.817c1.668-0.822,1.686-1.23,0.069-2.317C24.662,12.161,23.512,12.01,23.707,10.681z"/>
					<path style="fill:#ABD6DC;" d="M20.37,1.879c0.931-0.595,0.995,0.131,1.132,0.744C20.62,3.144,20.334,2.757,20.37,1.879z"/>
					<path style="fill:#C3C1C0;" d="M24.436,15.808c0.24,0,0.479,0.001,0.719,0.001c0.026,0.87-0.118,1.762,0.351,2.571
						c0.137,0.608,0.2,1.223,0.174,1.847c0.043,2.486,0.11,4.971-0.029,7.455c-0.195,1.393-1.123,1.905-2.4,1.993
						c-0.916-0.099-0.97-0.819-0.999-1.488c-0.051-1.183-0.42-2.132-1.568-2.668c-0.736-0.344-1.149-0.925-0.955-1.768
						c0.242-1.053,0.976-0.621,1.604-0.487c0.58,0.123,0.765-0.205,0.793-0.707c0.007-0.122,0.006-0.244,0.016-0.365
						c0.205-2.623,0.039-2.777-2.448-2.274c-0.11-0.088-0.15-0.181-0.123-0.278c0.028-0.1,0.059-0.15,0.092-0.15
						c-0.298-1.52,0.396-2.359,1.828-2.751C22.484,16.465,23.456,16.12,24.436,15.808z"/>
					<path style="fill:#D9E2E0;" d="M31.014,20.572c-0.009,0.608-0.019,1.215-0.028,1.823c-2.261-0.113-4.252-0.844-5.817-2.549
						c0.048-0.504-0.165-1.068,0.337-1.467C27.381,19.013,29.009,20.264,31.014,20.572z"/>
					<path style="fill:#452B23;" d="M35.518,41.848c-0.725,1.452-2.311,0.86-3.395,1.438c-0.918,0.49-2.409,0.178-2.576,1.767
						c-0.132,0.136-0.264,0.272-0.397,0.408c-2.059,0-4.117-0.001-6.176-0.001c0.012-1.328,0.481-2.266,1.908-2.629
						c0.871-0.222,1.655-0.903,2.522-1.007c1.917-0.229,1.47-1.721,1.611-2.812c0.083-0.645-0.563-0.393-0.953-0.278
						c-2.418,0.711-4.817,1.497-7.092,2.578c-4.017,1.909-8.075,3.704-12.252,5.246c-3.865,1.427-7.527,3.366-11.493,4.559
						c-0.767,0.231-1.406,0.887-2.104,1.348l-0.005-0.007c-0.815-0.954-0.567-2.093-0.554-3.195
						c10.497-4.242,20.976-8.525,31.452-12.816c0.616-0.252,1.229-0.56,1.933-0.366c0.27-0.28,0.533,1.028,0.797,0.005
						c0.121-0.469,0.26-0.93,0.279-1.43c0.079-2.076,2.18-3.392,3.94-2.274c1.393,0.885,2.516,0.515,3.781,0.007
						c0.749-0.301,1.539-1.224,2.315-0.439c0.837,0.847,0.412,1.933-0.068,2.889c-0.105,0.21-0.33,0.368-0.245,0.65
						c0.072,0.143,0.076,0.288,0.027,0.437c-0.147,0.208-0.356,0.319-0.592,0.392c-0.246,0.067-0.497,0.096-0.75,0.108
						c-1.849,0.064-3.77-0.267-5.381,0.952c-0.045,0.167,0.056,0.263,0.073,0.372c0.308,1.963,1.806,2.684,3.411,3.301
						C35.623,41.319,35.613,41.585,35.518,41.848z"/>
					<path style="fill:#FDFDFD;" d="M-5.978,11.797c-1.099-0.56-0.114-0.865,0.157-1.249c0.505-0.715,1.377-1.369,0.215-2.266
						c-0.513-0.396-0.237-0.897,0.021-1.309c0.995-1.588,1.957-3.202,3.047-4.723C-2,1.5-1.019,1.804-0.318,1.966
						c1.59,0.369,3.151,0.855,4.783,1.051c0.489,0.059,0.232,0.441,0.187,0.709C3.725,5.22,1.965,5.523,0.675,6.499
						C0.201,6.858-0.423,6.982-0.87,7.401c0.529,0.256,1.063,0.504,1.586,0.771c0.877,0.447,0.049,0.702-0.123,1.031
						C-1.328,10.751-3.617,11.366-5.978,11.797z"/>
					<path style="fill:#C2C0BD;" d="M0.242,18.388c3.248,0.547,3.627,2.722,3.35,5.512c-0.215,2.168-0.036,4.374-0.032,6.564
						c-0.914,1.29-2.098,1.458-3.105,0.441c-0.042-0.166-0.053-0.336-0.042-0.506c0.493-3.107,0.408-3.312-1.842-4.413
						c-0.153-0.098-0.274-0.225-0.369-0.379c-0.222-0.53-0.23-1.058,0.005-1.585c0.099-0.155,0.241-0.248,0.422-0.28
						c0.602-0.171,1.368,0.928,1.73,0.037c0.355-0.871,0.014-1.907-0.415-2.792c-0.158-0.326-0.506-0.513-0.798-0.729
						c-0.656-0.484-1.378-1.062-0.912-1.932C-1.172,17.218-0.437,18.354,0.242,18.388z"/>
					<path style="fill:#C2C2C0;" d="M7.586,20.954c0.87,0.102,2.434-1.186,2.212,1.105c0.972,1.994,0.498,4.071,0.357,6.125
						c-0.061,0.183-0.163,0.349-0.295,0.491c-0.628,0.28-1.009-0.685-1.723-0.282c0.046,0.4,0.659,0.388,0.699,0.8
						c-0.209,1.229,0.491,2.71-0.99,3.585c-1.183-1.594-1.975-3.449-3.326-4.947c-0.239-0.265-0.236-1.133,0.63-1.187
						c0.573-0.036,1.461,0.625,1.545-0.538c0.073-1.004,0.181-2.111-0.903-2.771c-0.573-0.349-1.14-0.697-1.496-1.295
						c-0.098-1.367,0.353-1.902,1.661-1.072C6.514,21.323,7.047,21.504,7.586,20.954z"/>
					<path style="fill:#CDCDCB;" d="M4.294,22.04c2.199,0.633,3.233,2,2.942,4.364c-0.122,0.99-0.439,1.33-1.381,0.97
						c-0.351-0.134-0.671-0.752-1.065-0.222c-0.322,0.433-0.168,1.141,0.266,1.28c2.143,0.684,2.349,2.436,2.527,4.242
						c0.279,0.675,0.66,1.308,0.826,2.029c-0.622,1.004-2.194,0.105-2.699,1.347c-0.437,0.001-0.576-0.312-0.693-0.651
						c-0.206-1.233-0.362-2.477-0.824-3.653c-0.135-0.319,0.091-0.601,0.096-0.907c0.815-1.162,0.036-2.326-0.035-3.478
						C4.147,25.582,4.645,23.814,4.294,22.04z"/>
					<path style="fill:#D0D0CD;" d="M-2.665,18.405c-0.004-0.377-0.008-0.753-0.012-1.13c1.064,0.132,2.111,0.311,2.919,1.113
						c-0.573,0.259-1.342-0.758-1.733,0.14c-0.365,0.837,0.557,1.09,1.037,1.467C0.41,20.675,1.3,23.41,0.95,24.411
						c-0.194,0.554-0.538,0.606-0.976,0.377c-0.532-0.279-1.039-0.605-1.557-0.911c-0.891-0.789-0.775-1.854-0.692-2.855
						C-2.198,20.1-2.295,19.242-2.665,18.405z"/>
					<path style="fill:#D9D6D3;" d="M-5.978,11.797c2.191-0.865,4.381-1.729,6.572-2.594c0.515-0.062,1.03-0.123,1.546-0.185
						c-2.58,1.911-5.742,2.429-8.923,4.2C-6.322,12.404-6.15,12.1-5.978,11.797z"/>
					<path style="fill:#D9D6D4;" d="M-0.87,7.401c1.408-1.875,3.721-2.39,5.521-3.675c0.51,0.109,0.944,0.306,0.257,0.754
						C3.093,5.666,1.441,7.191-0.87,7.401z"/>
					<path style="fill:#C8DAC1;" d="M4.29,30.839c0.288,0.237,0.102,0.336-0.123,0.424c-1.346,0.449-1.006,2.179-2.127,2.802
						c-0.395,0.095-0.765,0.05-1.106-0.181c-0.424-0.472-0.47-1.089-0.644-1.659c-0.061-0.514-0.099-1.024,0.389-1.383
						c1.092,0.872,1.956,0.016,2.882-0.379C3.803,30.588,4.047,30.714,4.29,30.839z"/>
					<path style="fill:#E4E1DE;" d="M34.296,22.101c1.825,1.346,4.19,1.727,5.89,3.296c-0.015,0.801-0.678,0.973-1.228,1.132
						c-1.516,0.439-2.971,1.078-4.529,1.376c-1.046,0.288-2.078-0.516-3.126-0.034c-1.755,0.888-3.646,1.502-5.386,2.555
						c0.62,0.669,1.503,0.702,2.07,1.259c0.135,0.135,0.201,0.297,0.201,0.488c-1.385,1.664-3.523,1.843-5.337,2.605
						c-7.372,3.095-14.814,6.026-22.255,8.953c-2.073,0.816-4.023,2.081-6.371,2.074c-2.676-1.787-5.73-2.97-8.175-5.152
						c-0.499-0.445-1.341-0.538-1.962-0.934c-0.625-0.4-1.236-0.809-1.337-1.637c0.325-1.563,1.502-0.829,2.387-0.889
						c0.621,0.062,1.122,0.449,1.703,0.624c0.164,0.06,0.32,0.137,0.472,0.222c1.988,1.189,3.959,2.407,5.923,3.636
						c1.067,0.667,2.123,0.788,3.275,0.151c1.287-0.711,2.745-1.003,4.108-1.535c7.318-2.429,14.52-5.181,21.785-7.764
						c-1.541-1.008-2.952,0.306-4.444,0.268c-0.718-0.037-1.487,0.115-2.029-0.556c1.16-1.583,1.042-3.423,1.021-5.231
						c-0.019-1.642-0.056-3.284-0.02-4.926c0.014-0.662-0.011-1.354,0.545-1.865c0.729-0.243,1.458-0.486,2.186-0.729
						c0.008,0.115,0.014,0.23,0.019,0.346c0.614,0.652,0.617,1.502,0.449,2.241c-0.318,1.399-0.121,2.737-0.006,4.129
						c0.157,1.895,1.112,2.817,2.842,3.174c0.808-0.377,2.056-0.09,2.205-1.462c2.305-1.308,4.432-3.168,7.407-2.383
						c1.234,0.351,2.327-0.3,3.724-0.347c-0.768-0.594-1.655-0.511-1.945-1.308C34.185,23.291,34.176,22.699,34.296,22.101z"/>
					<path style="fill:#C5C3C2;" d="M22.605,13.613c-3.869,1.352-7.694,2.842-11.967,3.881c1.348-4.142,2.691-8.083,4.263-11.947
						c2.27,1.978,4.457,4.048,6.752,5.998C22.227,12.033,23.153,12.533,22.605,13.613z"/>
					<path style="fill:#C5C3C2;" d="M17.479,20.217c0,3.143-0.075,6.289,0.034,9.428c0.045,1.313-0.275,2.191-1.519,2.657
						c-0.331,0.317-0.7,0.32-1.092,0.132c-0.425-0.41-0.492-0.959-0.451-1.485c0.093-1.204-0.387-2.189-1.051-3.122
						c0.171-0.735,0.72-0.49,1.172-0.427c0.564,0.078,1.133,0.437,1.72-0.031c-0.752-0.689-2.377,0.897-2.517-1.081
						c0.627-1.699-0.064-3.569,0.676-5.253c0.776-0.786,2.611-0.804,1.925-2.653c0.605-0.566,0.978-0.386,1.079,0.382
						C17.516,19.24,17.474,19.731,17.479,20.217z"/>
					<path style="fill:#D0D0CF;" d="M13.448,27.538c2.031,1.118,1.365,3.06,1.459,4.77c-0.205,0.933-0.784,0.627-1.32,0.383
						c-0.654-0.297-1.189-0.824-1.911-1.004c-0.171-0.099-0.29-0.24-0.365-0.422c-0.197-0.601-0.143-1.202-0.018-1.805
						c0.233-1.787,0.09-3.581,0.123-5.371c0.016-0.845,0.045-1.676,0.554-2.402c0.002-0.126,0.004-0.251,0.006-0.377
						c0.745-0.34,1.534-0.465,2.346-0.479c0.072,0.038,0.143,0.077,0.215,0.116c-0.002,1.55-0.006,3.101-0.003,4.651
						c0.001,0.503-0.233,0.786-0.732,0.851c-0.078,0.005-0.157,0.01-0.233,0.017c-0.213,0.02-0.493-0.035-0.595,0.184
						c-0.151,0.326,0.198,0.471,0.352,0.685C13.37,27.401,13.409,27.469,13.448,27.538z"/>
					<path style="fill:#E5E0DE;" d="M11.972,21.686c0.002,2.137,0.015,4.274-0.001,6.411c-0.004,0.587,0.175,1.244-0.429,1.688
						c-0.141,0.08-0.288,0.089-0.441,0.04c-0.462-0.271-0.997-0.411-1.409-0.774c-0.071-0.153-0.053-0.291,0.069-0.412
						c0.012-2.193,0.024-4.387,0.036-6.58C10.542,22.049,11.299,22.11,11.972,21.686z"/>
					<path style="fill:#BFBAB8;" d="M22.605,13.613c-0.993-2.346-3.415-3.276-5.013-5.031c-0.911-1-2.117-1.732-2.691-3.035
						c0.224-0.338,0.207-0.682,0.805-0.117c2.9,2.737,5.927,5.341,8.951,8.029C23.959,14.331,23.242,13.367,22.605,13.613z"/>
					<path style="fill:#BBBBB9;" d="M16.374,18.381c1.298,0.708,0.813,1.364-0.018,2.082c-0.549,0.474-1.164,0.501-1.816,0.483
						l0,0.001c-0.56-0.611-0.451-1.222,0.001-1.833C15.152,18.869,15.763,18.625,16.374,18.381z"/>
					<path style="fill:#C5C3C2;" d="M14.541,19.114c0,0.611-0.001,1.222-0.001,1.833c-0.821,0.35-1.646,0.674-2.561,0.362
						C11.734,19.294,13.23,19.313,14.541,19.114z"/>
					<path style="fill:#CFCFCD;" d="M32.832,25.761c-1.757-0.31-3.31,0.216-4.827,1.067c-0.877,0.492-1.733,1.131-2.83,1.088
						c-0.002-2.69-0.004-5.379-0.005-8.069c1.838,1.081,3.858,1.744,5.817,2.549c-0.02,1.573-0.081,3.177,2.231,3.036
						C33.258,25.739,33.186,25.915,32.832,25.761z"/>
					<path style="fill:#CFCFCD;" d="M22.97,29.377c-1.499,0.465-3.267-0.605-3.287-2.05c-0.033-2.497-0.003-4.996,0-7.494
						c0.132-0.124,0.242-0.295,0.398-0.364c2.299-1.024,2.52-0.883,2.521,1.578c0,0.549-0.037,1.101,0.007,1.646
						c0.099,1.239-0.198,1.789-1.489,1.015c-0.282-0.169-0.754-0.685-1.03-0.01c-0.151,0.369-0.183,1.039,0.265,1.139
						C22.924,25.41,22.481,27.65,22.97,29.377z"/>
					<path style="fill:#C5C3C2;" d="M-5.983,45.477c2.305-0.125,4.257-1.332,6.319-2.149c7.21-2.856,14.363-5.857,21.559-8.75
						c2.072-0.833,4.245-1.417,6.188-2.56c1.198,0.916,1.191,2.814-0.016,4.256c-5.976,2.388-11.958,4.761-17.926,7.168
						c-4.621,1.864-9.223,3.775-13.84,5.648c-0.612,0.248-1.221,0.57-1.925,0.479c-0.264-0.244-0.528-0.489-0.793-0.733
						c0.055-0.33,0.288-0.555,0.474-0.808c0.374-0.62,0.289-1.241,0.009-1.862C-6.036,45.942-6.116,45.717-5.983,45.477z"/>
					<path style="fill:#519D37;" d="M0.678,30.842c-0.001,0.448-0.001,0.895-0.002,1.343c0.127,0.67,0.122,1.338-0.014,2.008
						c-0.165,0.086-0.338,0.117-0.522,0.106c-2.808-0.407-2.844-0.482-2.123-3.324c0.117-0.463,0.193-0.946,0.274-1.424
						c1.436-0.785,1.766-0.656,2.349,0.915C0.652,30.59,0.665,30.716,0.678,30.842z"/>
					<path style="fill:#CBCDCA;" d="M0.639,30.464c-0.546-0.851-1.132-1.579-2.233-0.729c-0.117,0.176-0.234,0.175-0.35-0.001
						c0.484-1.309,0.339-2.674,0.362-4.024C1.129,26.188,1.707,27.426,0.639,30.464z"/>
					<path style="fill:#B3C5A7;" d="M9.761,28.638c0.023,0.119,0.029,0.238,0.016,0.359c-0.597,2.043-0.751,4.07,0.208,6.059
						c-0.083,0.166-0.216,0.268-0.397,0.308c-0.548-0.101-0.922-0.462-1.275-0.856c-0.857-0.367-1.051-0.998-0.73-1.835
						c1.454-0.898,0.199-2.6,1.088-3.666c0.002-0.608,0.311-0.61,0.74-0.374C9.528,28.636,9.644,28.637,9.761,28.638z"/>
					<path style="fill:#B9B0AF;" d="M9.411,28.634c-0.302,0.014-0.578,0.083-0.74,0.374c-0.06,0-0.12,0.004-0.18-0.001
						c-0.57-0.044-1.357,0.155-1.443-0.657c-0.062-0.586,0.611-0.372,0.981-0.455C8.701,27.743,9.525,27.316,9.411,28.634z"/>
					<path style="fill:#8EB645;" d="M9.387,35.207c0.131,0.012,0.263,0.023,0.394,0.034c0.163-0.203,0.251-0.469,0.494-0.608
						c0.815-0.32,1.692-0.46,2.478-0.866c1.788-0.682,3.649-1.08,5.523-1.427c1.719-0.472,3.449-1.352,5.218,0.257
						c-2.792,1.024-5.506,2.077-8.259,3.016c-4.886,1.668-9.644,3.698-14.617,5.115c-0.131-0.119-0.188-0.269-0.183-0.444
						c0.498-1.077,1.82-1.404,2.286-2.509c0.971,0.09,0.299-0.864,0.713-1.13c0.742-0.299,1.06-1.185,1.886-1.369
						c0.091,0.239,0.084,0.544,0.417,0.62C6.971,35.76,8.089,35.005,9.387,35.207z"/>
					<path style="fill:#599E41;" d="M5.321,35.276c-0.416,0.685-0.625,1.619-1.747,1.458c-0.298,0.386-0.624,0.699-1.168,0.45
						c-0.578-0.506-0.97-1.116-1.047-1.899c-0.018-0.603,0.238-1.074,0.701-1.445c0.613-0.933,0.017-2.855,2.108-2.578
						C5.338,32.375,5.191,33.865,5.321,35.276z"/>
					<path style="fill:#8EB645;" d="M2.059,33.841c-0.116,0.466-0.232,0.931-0.348,1.397c-0.832,0.184-0.72,0.695-0.519,1.32
						c0.184,0.573,0.32,1.272-0.293,1.647C0.252,38.599-0.041,37.9-0.394,37.54c-0.377-0.386-1.018-0.431-1.248-0.993
						c0.122-0.581,0.38-1.115,0.581-1.67c0.307-0.475,0.722-0.753,1.308-0.719c0.125-0.021,0.251-0.042,0.376-0.064
						c0.156-0.118,0.19-0.37,0.432-0.394C1.391,33.747,1.725,33.794,2.059,33.841z"/>
					<path style="fill:#57A348;" d="M1.056,33.7c-0.144,0.132-0.288,0.264-0.432,0.395c-0.237-0.643-0.146-1.277,0.052-1.909
						C1.1,32.615,0.884,33.206,1.056,33.7z"/>
					<path style="fill:#57A348;" d="M-2.376,34.458c-0.366-1.075-0.353-2.143,0.064-3.202c0.122-0.507,0.245-1.015,0.367-1.523
						c0.117-0.003,0.234-0.003,0.351,0.001c0.002,0.06-0.009,0.125,0.007,0.181c0.305,1.059-0.537,1.927-0.462,2.976
						c0.121,1.701,1.988,0.036,2.297,1.266c-0.341,0.242-0.681,0.483-1.022,0.725c-0.332,0.024-0.664,0.079-0.995-0.013
						C-2.02,34.805-2.243,34.698-2.376,34.458z"/>
					<path style="fill:#C5C1BF;" d="M31.434,30.122c-1.071,0.839-2.551,0.849-3.582,1.768c-0.94-0.472-2.546-0.412-2.648-1.505
						c-0.076-0.812,1.543-0.81,2.36-1.274c1.099-0.624,2.307-1.056,3.468-1.57c1.693-0.21,1.608-0.23,1.254,1.301
						C32.144,29.453,31.573,29.61,31.434,30.122z"/>
					<path style="fill:#D8DFC9;" d="M18.276,32.34c-1.757,0.877-3.679,1.266-5.529,1.868c-0.355,0.15-0.67,0.13-0.909-0.211
						c-0.059-0.155-0.083-0.318-0.069-0.483c0.205-0.508,0.333-1.02,0.049-1.547c-0.021-0.165,0.033-0.303,0.151-0.417
						c1.153-0.42,1.665,1.642,2.937,0.757c0.362-0.002,0.725-0.004,1.087-0.006C16.754,32.315,17.515,32.327,18.276,32.34z"/>
					<path style="fill:#B7B4B0;" d="M13.805,26.448c0.58,1.099,1.39,0.215,2.076,0.197c0.467-0.012,0.987-0.381,1.167,0.333
						c0.171,0.678-0.29,0.924-0.872,1.126c-1.047,0.364-1.754-0.71-2.728-0.567l-0.003-0.002c-0.349-0.275-0.967-0.462-0.697-1.035
						c0.212-0.451,0.686-0.274,1.057-0.054L13.805,26.448z"/>
					<path style="fill:#4D9E36;" d="M11.261,29.736c0.092,0.028,0.186,0.044,0.282,0.048c0.04,0.571,0.08,1.142,0.12,1.714
						c0.424,1.089,0.524,2.093-0.943,2.386c-0.801,0.16-1.445-0.17-1.618-1.061c-0.178-0.916-0.032-1.864,0.213-2.703
						C9.618,29.084,10.509,29.394,11.261,29.736z"/>
					<path style="fill:#619E4F;" d="M11.261,29.736c-0.605,0.13-1.515-0.352-1.742,0.517c-0.241,0.92-0.306,1.943,0.055,2.868
						c0.155,0.397,0.63,0.542,1.102,0.382c0.393-0.134,0.869-0.161,0.907-0.731c0.028-0.424,0.054-0.849,0.08-1.274
						c0.103,0.017,0.205,0.034,0.308,0.052c0.031,0.138,0.063,0.276,0.094,0.415c0.224,0.483,0.244,0.959-0.045,1.425
						c-0.061,0.099-0.111,0.203-0.148,0.313c-0.117,0.978-1.176,0.627-1.618,1.147c-0.157,0.13-0.314,0.261-0.472,0.391
						c0.311-1.065-1.148-1.194-1.117-2.079c0.05-1.468-0.014-2.981,1.114-4.166C10.364,29.059,10.973,29.075,11.261,29.736z"/>
					<path style="fill:#C5C3C2;" d="M13.804,26.446c-1.511-0.096-0.552,0.623-0.359,1.089c-0.584,0.018-1.104-0.05-1.094-0.821
						c0.004-0.292-0.071-0.678,0.244-0.795C13.115,25.727,13.488,26.067,13.804,26.446z"/>
					<path style="fill:#A8CB8A;" d="M10.252,34.851c0.196-0.868,1.173-0.632,1.619-1.147c0.193,0.339,0.531,0.426,0.875,0.504
						C11.978,34.667,11.15,34.892,10.252,34.851z"/>
					<path style="fill:#45A337;" d="M2.959,34.204c0.518-0.583-0.49-1.963,0.691-1.899c0.748,0.041,0.905,1.404,1.08,2.233
						c0.096,0.453-0.153,1.167-0.933,1.022C3.068,35.426,2.889,34.87,2.959,34.204z"/>
					<path style="fill:#D0D0CF;" d="M12.019,33.391c0.015-0.475,0.03-0.951,0.045-1.426C12.855,32.466,12.81,32.94,12.019,33.391z"
						/>
				</g>
			</g>
		</g>
	</g>
	<g>
		<g>
			<path id="XMLID_132_" style="fill:#DF933D;" d="M27.463,12.801c0-7.238-6.444-13.074-14.275-12.792
				C6.083,0.266,0.224,5.775,0.007,12.4c-0.185,5.646,3.556,10.489,8.865,12.362c0.825,0.291,1.478,0.895,1.805,1.658l2.921,6.816
				c0.048,0.113,0.22,0.113,0.268,0l2.92-6.815c0.33-0.771,0.995-1.372,1.827-1.667C23.784,22.92,27.463,18.267,27.463,12.801z"/>
			<g>
				<defs>
					<path id="XMLID_126_" d="M27.463,12.801c0-7.238-6.444-13.074-14.275-12.792C6.083,0.266,0.224,5.775,0.007,12.4
						c-0.185,5.646,3.556,10.489,8.865,12.362c0.825,0.291,1.478,0.895,1.805,1.658l2.921,6.816c0.048,0.113,0.22,0.113,0.268,0
						l2.92-6.815c0.33-0.771,0.995-1.372,1.827-1.667C23.784,22.92,27.463,18.267,27.463,12.801z"/>
				</defs>
				<use xlink:href="#XMLID_126_"  style="overflow:visible;fill:#DF933D;"/>
				<clipPath id="XMLID_102_">
					<use xlink:href="#XMLID_126_"  style="overflow:visible;"/>
				</clipPath>
				<path style="clip-path:url(#XMLID_102_);fill:#EFC57D;" d="M21.054-0.81c0,0-11.876,0.619-15.796,6.702s-4.64,6.118-4.64,6.118
					S1.76,4.711,5.949,1.157C8.61-1.1,21.054-0.81,21.054-0.81z"/>
				<path style="clip-path:url(#XMLID_102_);fill:#EFC57D;" d="M20.293,0.015c0,0-7.172,1.015-8.632,3.173s6.347-2.793,9.33-2.412
					S20.293,0.015,20.293,0.015z"/>
			</g>
			<linearGradient id="SVGID_2_" gradientUnits="userSpaceOnUse" x1="13.7315" y1="34.4269" x2="13.7315" y2="1.1053">
				<stop  offset="0" style="stop-color:#D58E3C"/>
				<stop  offset="1" style="stop-color:#E9A749"/>
			</linearGradient>
			<path style="fill:url(#SVGID_2_);" d="M27.463,13.907c0-7.238-6.444-13.074-14.275-12.792C6.083,1.371,0.224,6.881,0.007,13.505
				c-0.185,5.646,3.556,10.489,8.865,12.362c0.825,0.291,1.478,0.895,1.805,1.658l2.921,6.816c0.048,0.113,0.22,0.113,0.268,0
				l2.92-6.815c0.33-0.771,0.995-1.372,1.827-1.667C23.784,24.026,27.463,19.372,27.463,13.907z"/>
			<ellipse style="fill:#E3B36A;" cx="13.731" cy="13.889" rx="11.123" ry="10.111"/>
			<ellipse style="fill:#992D23;" cx="13.731" cy="13.423" rx="10.92" ry="9.897"/>
			<ellipse style="fill:#B23329;" cx="13.731" cy="13.812" rx="10.92" ry="9.522"/>
			<path style="opacity:0.2;fill:#352A23;" d="M27.463,13.907c0-0.865-0.092-1.71-0.268-2.527c-0.808,0.587-2.4,1.574-2.4,1.574
				s-0.136,0.411-0.149,0.432c-1.572,1.386-14.145,8.358-15.558,9.05c-0.249,0.093-0.771,0.081-1.068,0.105
				c-0.213,0.115-2.112,1.502-2.396,1.685c0.99,0.675,2.081,1.231,3.248,1.642c0.825,0.291,1.478,0.895,1.805,1.658l2.921,6.816
				c0.048,0.113,0.22,0.113,0.268,0l2.92-6.815c0.33-0.771,0.995-1.372,1.827-1.667C23.784,24.026,27.463,19.372,27.463,13.907z"/>
		</g>
		<g>
			<g>
				<defs>
					<path id="XMLID_124_" d="M27.463,12.801c0-7.238-6.444-13.074-14.275-12.792C6.083,0.266,0.224,5.775,0.007,12.4
						c-0.185,5.646,3.556,10.489,8.865,12.362c0.825,0.291,1.478,0.895,1.805,1.658l2.921,6.816c0.048,0.113,0.22,0.113,0.268,0
						l2.92-6.815c0.33-0.771,0.995-1.372,1.827-1.667C23.784,22.92,27.463,18.267,27.463,12.801z"/>
				</defs>
				<clipPath id="XMLID_103_">
					<use xlink:href="#XMLID_124_"  style="overflow:visible;"/>
				</clipPath>
			</g>
		</g>
	</g>
</g>
<g id="&#x5716;&#x5C64;_3">
</g>
</svg>
